<svg id="floor-8" viewBox="0 0 2240 380">
<g>
	<path class="floor-base" d="M2235.833,190
		c0,21.334-120.5,155.334-252.161,155.334c-134,0-243.167,0-243.167,0c-32.5,30.334-72.001,31.25-77.584,31.25
		s-7.087-11.084-11.083-11.084c-3,0-34.835,0-39.001,0s-6.668,11-11.167,11c-3.667,0-611.168,0-639.168,0
		c-25.834,0-55.471-15.664-75-27.5c-12.667,5.334-52.501,19.668-99.167,19.668c-35.833,0-79.5-10.502-99.835-19.668
		c-13.333,7.668-47,27.5-66.167,27.5s-498.999,0-498.999,0V347c0,0-46.667,0-76.167,0S5,317.166,5,291.667
		C5,256,20.169,211.5,43.333,211.5c8.333,0,4.833,0,4.833,0l-4.833-4.834V190v-16.667l4.833-4.833c0,0,3.5,0-4.833,0
		C20.169,168.5,5,124.001,5,88.333C5,62.833,17.667,33,47.167,33s76.167,0,76.167,0V3.5c0,0,479.833,0,498.999,0
		S675.166,23.333,688.5,31c20.335-9.166,64.001-19.667,99.835-19.667c46.667,0,86.5,14.334,99.167,19.667
		c19.528-11.835,49.165-27.5,75-27.5c28,0,635.501,0,639.168,0c4.499,0,7.001,11,11.167,11s36.001,0,39.001,0
		c3.996,0,5.5-11.083,11.083-11.083s45.084,0.916,77.584,31.25c0,0,109.167,0,243.167,0
		C2115.333,34.666,2235.833,168.667,2235.833,190z"/>
</g>
</svg>
