<svg id="floor-9" viewBox="0 0 2240 380">
<g>
	<path class="floor-base" d="M41.5,205.594c0,1.834,1.188,4.146,3.688,4.146
		l-0.021,2.088c-15.125-0.137-30.042,12.35-30.04,31.308c-3.152,0-9.667,3.314-9.667,9.917c0,2.791,0,19.625,0,27.541
		c0,7.917,7.292,13.001,15.542,13.001s64.249,0,64.249,0v34.833h121.417l17.833,14h203.667l18.583-14H546l14,14h981.769l30.104-35.5
		l481.127,0.5v-14c0,0,142.422-0.25,153.172-0.25c14.994,0,29.578-51.625,29.578-102.714S2221.167,87.75,2206.172,87.75
		c-10.75,0-153.172-0.25-153.172-0.25v-14L1571.873,74l-30.104-35.5H560l-14,14h-99.25l-18.583-14H224.5l-17.833,14H85.25v34.833
		c0,0-55.999,0-64.249,0s-15.542,5.083-15.542,13s0,24.75,0,27.542c0,6.603,6.515,9.917,9.667,9.917
		c-0.001,18.958,14.915,31.444,30.04,31.308l0.021,2.087c-2.5,0-3.688,2.312-3.688,4.146S41.5,203.761,41.5,205.594z"></path>
	<rect x="1933.501" y="101.5" class="cabin auera-experience-balcony" width="19.833" height="50.833" data-id="9031"></rect>
	<rect x="1912.834" y="101.5" class="cabin auera-experience-balcony" width="20.667" height="50.833" data-id="9033"></rect>
	<rect x="1892.501" y="101.5" class="cabin auera-experience-balcony" width="20.333" height="50.833" data-id="9035"></rect>
	<rect x="1872.334" y="101.5" class="cabin auera-experience-balcony" width="20.167" height="50.833" data-id="9037"></rect>
	<rect x="1852.501" y="101.5" class="cabin auera-experience-balcony" width="19.833" height="50.833" data-id="9039"></rect>
	<rect x="1832.667" y="101.5" class="cabin auera-experience-balcony" width="19.834" height="50.833" data-id="9041"></rect>
	<rect x="1812.334" y="101.5" class="cabin auera-experience-balcony" width="20.333" height="50.833" data-id="9043"></rect>
	<rect x="1792.5" y="101.5" class="cabin auera-experience-balcony" width="19.834" height="50.833" data-id="9045"></rect>
	<rect x="1773" y="101.5" class="cabin auera-experience-balcony" width="19.5" height="50.833" data-id="9047"></rect>
	<rect x="1752.667" y="101.5" class="cabin auera-experience-balcony" width="20.333" height="50.833" data-id="9049"></rect>
	<rect x="1732.502" y="101.5" class="cabin auera-experience-balcony" width="20.165" height="50.833" data-id="9051"></rect>
	<rect x="1712.335" y="101.5" class="cabin auera-experience-balcony" width="20.167" height="50.833" data-id="9053"></rect>
	<rect x="1692.835" y="101.5" class="cabin auera-experience-balcony" width="19.5" height="50.833" data-id="9055"></rect>
	<rect x="1672.835" y="101.5" class="cabin auera-experience-balcony" width="20" height="50.833" data-id="9057"></rect>
	<polygon class="cabin fantastica-experience-suite" points="1552.039,76.5 1571.873,101.5 1571.873,152.334 
		1552.039,152.334 	" data-id="9069"></polygon>
	<polygon class="cabin auera-experience-grand-suite" points="1531.5,52.5 1552.039,76.5 1552.039,152.334 
		1531.5,152.333 	" data-id="9071"></polygon>
	<rect x="1612.873" y="101.5" class="cabin auera-experience-balcony" width="20" height="50.833" data-id="9063"></rect>
	<rect x="1571.873" y="101.5" class="cabin auera-experience-balcony" width="20.627" height="50.834" data-id="9067"></rect>
	<rect x="1592.5" y="101.5" class="cabin auera-experience-balcony" width="20.373" height="50.833" data-id="9065"></rect>
	<rect x="1511.75" y="52.5" class="cabin bella-experience-balcony" width="19.75" height="49.417" data-id="9073"></rect>
	<rect x="1491.75" y="52.5" class="cabin bella-experience-balcony" width="20" height="49.417" data-id="9077"></rect>
	<rect x="1471.5" y="52.5" class="cabin bella-experience-balcony" width="20.25" height="49.417" data-id="9079"></rect>
	<rect x="1451.25" y="52.5" class="cabin bella-experience-balcony" width="20.25" height="49.417" data-id="9081"></rect>
	<rect x="1431.25" y="52.5" class="cabin bella-experience-balcony" width="20" height="49.417" data-id="9083"></rect>
	<rect x="1411" y="52.5" class="cabin bella-experience-balcony" width="20.25" height="49.417" data-id="9085"></rect>
	<rect x="1391.25" y="52.5" class="cabin bella-experience-balcony" width="19.75" height="49.417" data-id="9087"></rect>
	<rect x="1371.25" y="52.5" class="cabin bella-experience-balcony" width="20" height="49.417" data-id="9089"></rect>
	<rect x="1351.5" y="52.5" class="cabin bella-experience-balcony" width="19.75" height="49.417" data-id="9091"></rect>
	<rect x="1331" y="52.5" class="cabin bella-experience-balcony" width="20.5" height="49.417" data-id="9095"></rect>
	<rect x="1310.75" y="52.5" class="cabin bella-experience-balcony" width="20.25" height="49.417" data-id="9099"></rect>
	<rect x="1290.5" y="52.5" class="cabin bella-experience-balcony" width="20.25" height="49.417" data-id="9103"></rect>
	<rect x="1270.5" y="52.5" class="cabin bella-experience-balcony" width="20" height="49.417" data-id="9107"></rect>
	<rect x="1250.5" y="52.5" class="cabin bella-experience-balcony" width="20" height="49.417" data-id="9111"></rect>
	<rect x="1230.5" y="52.5" class="cabin bella-experience-balcony" width="20" height="49.417" data-id="9115"></rect>
	<rect x="1210.25" y="52.5" class="cabin bella-experience-balcony" width="20.25" height="49.417" data-id="9121"></rect>
	<rect x="1190" y="52.5" class="cabin bella-experience-balcony" width="20.25" height="49.417" data-id="9125"></rect>
	<rect x="1169.5" y="52.5" class="cabin bella-experience-balcony" width="20.5" height="49.417" data-id="9127"></rect>
	<rect x="1149.833" y="52.5" class="cabin bella-experience-balcony" width="19.667" height="49.417" data-id="9129"></rect>
	<rect x="1129.5" y="52.5" class="cabin bella-experience-balcony" width="20.333" height="49.417" data-id="9131"></rect>
	<rect x="1109.5" y="52.5" class="cabin bella-experience-balcony" width="20" height="49.417" data-id="9133"></rect>
	<rect x="1089.75" y="52.5" class="cabin bella-experience-balcony" width="19.75" height="49.417" data-id="9135"></rect>
	<rect x="1069.25" y="52.5" class="cabin bella-experience-balcony" width="20.5" height="49.417" data-id="9137"></rect>
	<rect x="1049" y="52.5" class="cabin bella-experience-balcony" width="20.25" height="49.417" data-id="9139"></rect>
	<rect x="1030" y="52.5" class="cabin bella-experience-balcony" width="19" height="49.417" data-id="9141"></rect>
	<rect x="1009.25" y="52.5" class="cabin bella-experience-balcony" width="20.75" height="49.417" data-id="9143"></rect>
	<rect x="989.25" y="52.5" class="cabin bella-experience-balcony" width="20" height="49.417" data-id="9145"></rect>
	<rect x="969" y="52.5" class="cabin bella-experience-balcony" width="20.25" height="49.417" data-id="9147"></rect>
	<rect x="948.25" y="52.5" class="cabin bella-experience-balcony" width="20.75" height="49.417" data-id="9149"></rect>
	<rect x="928.25" y="52.5" class="cabin bella-experience-balcony" width="20" height="49.417" data-id="9151"></rect>
	<rect x="908.75" y="52.5" class="cabin bella-experience-balcony" width="19.5" height="49.417" data-id="9153"></rect>
	<rect x="888" y="52.5" class="cabin bella-experience-balcony" width="20.75" height="49.417" data-id="9155"></rect>
	<rect x="868.5" y="52.5" class="cabin bella-experience-balcony" width="19.5" height="49.417" data-id="9157"></rect>
	<rect x="848" y="52.5" class="cabin bella-experience-balcony" width="20.5" height="49.417" data-id="9159"></rect>
	<rect x="828.5" y="52.5" class="cabin bella-experience-balcony" width="19.5" height="49.417" data-id="9163"></rect>
	<rect x="808" y="52.5" class="cabin bella-experience-balcony" width="20.5" height="49.417" data-id="9167"></rect>
	<rect x="787.5" y="52.5" class="cabin bella-experience-balcony" width="20.5" height="49.417" data-id="9171"></rect>
	<rect x="767.25" y="52.5" class="cabin bella-experience-balcony" width="20.25" height="49.417" data-id="9175"></rect>
	<rect x="747" y="52.5" class="cabin bella-experience-balcony" width="20.25" height="49.417" data-id="9179"></rect>
	<rect x="727.5" y="52.5" class="cabin bella-experience-balcony" width="19.5" height="49.417" data-id="9181"></rect>
	<rect x="688" y="52.5" class="cabin" width="19.75" height="49.417"></rect>
	<rect x="667.25" y="52.5" class="cabin bella-experience-balcony" width="20.75" height="49.417" data-id="9187"></rect>
	<polygon class="cabin auera-experience-grand-suite" points="546,77.5 566.75,52.5 566.75,151.5 546,151.5 	" data-id="9201"></polygon>
	<polygon class="cabin fantastica-experience-suite" points="526.5,101.25 546,77.25 546,151.5 526.5,151.5 	" data-id="9203"></polygon>
	<rect x="506.75" y="101.25" class="cabin auera-experience-suite" width="19.75" height="50.25" data-id="9205"></rect>
	<rect x="486.25" y="101.25" class="cabin auera-experience-suite" width="20.5" height="50.25" data-id="9207"></rect>
	<rect x="466.5" y="101.25" class="cabin auera-experience-suite" width="19.75" height="50.25" data-id="9209"></rect>
	<rect x="446.75" y="101.25" class="cabin auera-experience-suite" width="19.75" height="50.25" data-id="9211"></rect>
	<rect x="426.5" y="101.25" class="cabin auera-experience-suite" width="20.25" height="50.25" data-id="9213"></rect>
	<rect x="406.25" y="101.25" class="cabin auera-experience-suite" width="20.25" height="50.25" data-id="9215"></rect>
	<rect x="386.5" y="101.25" class="cabin auera-experience-suite" width="19.75" height="50.25" data-id="9219"></rect>
	<rect x="366.5" y="101.25" class="cabin auera-experience-suite" width="20" height="50.25" data-id="9221"></rect>
	<rect x="346.25" y="101.25" class="cabin auera-experience-suite" width="20.25" height="50.25" data-id="9223"></rect>
	<rect x="286.25" y="101.25" class="cabin auera-experience-suite" width="19.25" height="50.25" data-id="9229"></rect>
	<rect x="266.25" y="101.25" class="cabin auera-experience-suite" width="20" height="50.25" data-id="9231"></rect>
	<rect x="245.75" y="101.25" class="cabin auera-experience-suite" width="20.5" height="50.25" data-id="9233"></rect>
	<rect x="225.5" y="101.25" class="cabin auera-experience-suite" width="20.25" height="50.25" data-id="9235"></rect>
	<rect x="204.5" y="101.25" class="cabin auera-experience-suite" width="21" height="50.25" data-id="9237"></rect>
	<rect x="185.75" y="101.25" class="cabin auera-experience-suite" width="18.75" height="50.25" data-id="9239"></rect>
	<rect x="165.5" y="101.25" class="cabin auera-experience-suite" width="20.25" height="50.25" data-id="9241"></rect>
	<rect x="145.25" y="101.25" class="cabin auera-experience-suite" width="20.25" height="50.25" data-id="9243"></rect>
	<rect x="125.25" y="101.25" class="cabin auera-experience-suite" width="20" height="50.25" data-id="9245"></rect>
	<rect x="105.75" y="101.25" class="cabin auera-experience-suite" width="19.5" height="50.25" data-id="9247"></rect>
	<rect x="85.25" y="101.25" class="cabin auera-experience-suite" width="20.5" height="50.25" data-id="9249"></rect>
	<rect x="65.25" y="101.25" class="cabin bella-experience-balcony" width="20" height="50.25" data-id="9251"></rect>
	<rect x="45.75" y="101.25" class="cabin bella-experience-balcony" width="19.5" height="50.25" data-id="9253"></rect>
	<path class="cabin auera-experience-suite" d="M43.25,167.75c1.75,0,2.5,0,2.5,0v-66.5c0,0-17.75,0-22.5,0
		s-7.75-0.876-7.75,5.125s0,0.75,0,26.75C15.5,160.319,34.266,167.75,43.25,167.75z" data-id="9255"></path>
	<rect x="1953.334" y="101.5" class="cabin auera-experience-balcony" width="20.54" height="50.833" data-id="9029"></rect>
	<rect x="1973.874" y="101.5" class="cabin auera-experience-balcony" width="19.75" height="50.833" data-id="9027"></rect>
	<rect x="1993.624" y="101.5" class="cabin auera-experience-balcony" width="19.626" height="50.833" data-id="9025"></rect>
	<rect x="2013.25" y="101.5" class="cabin auera-experience-balcony" width="20.25" height="50.833" data-id="9023"></rect>
	<rect x="2033.5" y="101.5" class="cabin auera-experience-balcony" width="19.5" height="50.833" data-id="9021"></rect>
	<rect x="2053" y="101.5" class="cabin bella-experience-balcony" width="20.25" height="50.833" data-id="9019"></rect>
	<rect x="2073.25" y="101.5" class="cabin bella-experience-balcony" width="20.25" height="50.833" data-id="9015"></rect>
	<rect x="2093.5" y="101.5" class="cabin bella-experience-balcony" width="20" height="50.833" data-id="9013"></rect>
	<rect x="2113.5" y="101.5" class="cabin bella-experience-balcony" width="20.5" height="50.833" data-id="9009"></rect>
	<rect x="2154" y="101.5" class="cabin bella-experience-balcony" width="19.75" height="50.833" data-id="9005"></rect>
	<path class="cabin fantastica-experience-suite" d="M2209.5,167.25h-35.75V101.5h19.75
		C2203.25,119.625,2209.625,154.125,2209.5,167.25z" data-id="9003"></path>
	<rect x="1652.873" y="101.5" class="cabin auera-experience-balcony" width="19.962" height="50.833" data-id="9059"></rect>
	<rect x="647.5" y="52.5" class="cabin bella-experience-balcony" width="19.75" height="49.417" data-id="9189"></rect>
	<polygon class="cabin bella-experience-balcony" points="566.75,101.917 586.75,102 586.75,52.5 566.75,52.5 	
		" data-id="9199"></polygon>
	<rect x="326" y="101.25" class="cabin auera-experience-suite" width="20.25" height="50.25" data-id="9225"></rect>
	<rect x="305.5" y="101.25" class="cabin auera-experience-suite" width="20.5" height="50.25" data-id="9227"></rect>
	<rect x="1632.873" y="101.5" class="cabin auera-experience-balcony" width="20" height="50.833" data-id="9061"></rect>
	<rect x="688" y="52.5" class="cabin bella-experience-balcony" width="19.75" height="49.417" data-id="9185"></rect>
	<rect x="707.75" y="52.5" class="cabin bella-experience-balcony" width="19.75" height="49.417" data-id="9183"></rect>
	<rect x="627.75" y="52.5" class="cabin bella-experience-balcony" width="19.75" height="49.417" data-id="9191"></rect>
	<rect x="2134" y="101.5" class="cabin bella-experience-balcony" width="20" height="50.833" data-id="9007"></rect>
	<rect x="606.75" y="52.5" class="cabin bella-experience-balcony" width="21" height="49.417" data-id="9193"></rect>
	<polygon class="cabin bella-experience-balcony" points="586.75,102 606.75,101.917 606.75,52.5 586.75,52.5 	
		" data-id="9195"></polygon>
	<rect x="1933.501" y="227.869" class="cabin auera-experience-balcony" width="19.833" height="50.834" data-id="9028"></rect>
	<rect x="1912.834" y="227.869" class="cabin auera-experience-balcony" width="20.667" height="50.834" data-id="9030"></rect>
	<rect x="1892.501" y="227.869" class="cabin auera-experience-balcony" width="20.333" height="50.834" data-id="9032"></rect>
	<rect x="1872.334" y="227.869" class="cabin auera-experience-balcony" width="20.167" height="50.834" data-id="9034"></rect>
	<rect x="1852.501" y="227.869" class="cabin auera-experience-balcony" width="19.833" height="50.834" data-id="9036"></rect>
	<rect x="1832.667" y="227.869" class="cabin auera-experience-balcony" width="19.834" height="50.834" data-id="9038"></rect>
	<rect x="1812.334" y="227.869" class="cabin auera-experience-balcony" width="20.333" height="50.834" data-id="9040"></rect>
	<rect x="1792.5" y="227.869" class="cabin auera-experience-balcony" width="19.834" height="50.834" data-id="9042"></rect>
	<rect x="1773" y="227.869" class="cabin auera-experience-balcony" width="19.5" height="50.834" data-id="9044"></rect>
	<rect x="1752.667" y="227.869" class="cabin auera-experience-balcony" width="20.333" height="50.834" data-id="9046"></rect>
	<rect x="1732.502" y="227.869" class="cabin auera-experience-balcony" width="20.165" height="50.834" data-id="9048"></rect>
	<rect x="1712.335" y="227.869" class="cabin auera-experience-balcony" width="20.167" height="50.834" data-id="9050"></rect>
	<rect x="1692.835" y="227.869" class="cabin auera-experience-balcony" width="19.5" height="50.834" data-id="9052"></rect>
	<rect x="1672.835" y="227.869" class="cabin auera-experience-balcony" width="20" height="50.834" data-id="9054"></rect>
	<polygon class="cabin fantastica-experience-suite" points="1552.039,303.703 1571.873,278.703 1571.873,227.869 
		1552.039,227.869 	" data-id="9066"></polygon>
	<polygon class="cabin auera-experience-grand-suite" points="1531.5,327.703 1552.039,303.703 1552.039,227.869 
		1531.5,227.869 	" data-id="9068"></polygon>
	<rect x="1612.873" y="227.869" class="cabin auera-experience-balcony" width="20" height="50.834" data-id="9060"></rect>
	<rect x="1571.873" y="227.869" class="cabin auera-experience-balcony" width="20.627" height="50.834" data-id="9064"></rect>
	<rect x="1592.5" y="227.869" class="cabin auera-experience-balcony" width="20.373" height="50.834" data-id="9062"></rect>
	<rect x="1511.75" y="278.286" class="cabin bella-experience-balcony" width="19.75" height="49.417" data-id="9070"></rect>
	<rect x="1491.75" y="278.286" class="cabin bella-experience-balcony" width="20" height="49.417" data-id="9074"></rect>
	<rect x="1471.5" y="278.286" class="cabin bella-experience-balcony" width="20.25" height="49.417" data-id="9076"></rect>
	<rect x="1451.25" y="278.286" class="cabin bella-experience-balcony" width="20.25" height="49.417" data-id="9078"></rect>
	<rect x="1431.25" y="278.286" class="cabin bella-experience-balcony" width="20" height="49.417" data-id="9080"></rect>
	<rect x="1411" y="278.286" class="cabin bella-experience-balcony" width="20.25" height="49.417" data-id="9082"></rect>
	<rect x="1391.25" y="278.286" class="cabin bella-experience-balcony" width="19.75" height="49.417" data-id="9084"></rect>
	<rect x="1371.25" y="278.286" class="cabin bella-experience-balcony" width="20" height="49.417" data-id="9086"></rect>
	<rect x="1351.5" y="278.286" class="cabin bella-experience-balcony" width="19.75" height="49.417" data-id="9088"></rect>
	<rect x="1331" y="278.286" class="cabin bella-experience-balcony" width="20.5" height="49.417" data-id="9092"></rect>
	<rect x="1310.75" y="278.286" class="cabin bella-experience-balcony" width="20.25" height="49.417" data-id="9096"></rect>
	<rect x="1290.5" y="278.286" class="cabin bella-experience-balcony" width="20.25" height="49.417" data-id="9100"></rect>
	<rect x="1270.5" y="278.286" class="cabin bella-experience-balcony" width="20" height="49.417" data-id="9104"></rect>
	<rect x="1250.5" y="278.286" class="cabin bella-experience-balcony" width="20" height="49.417" data-id="9108"></rect>
	<rect x="1230.5" y="278.286" class="cabin bella-experience-balcony" width="20" height="49.417" data-id="9112"></rect>
	<rect x="1210.25" y="278.286" class="cabin bella-experience-balcony" width="20.25" height="49.417" data-id="9116"></rect>
	<rect x="1190" y="278.286" class="cabin bella-experience-balcony" width="20.25" height="49.417" data-id="9120"></rect>
	<rect x="1169.5" y="278.286" class="cabin bella-experience-balcony" width="20.5" height="49.417" data-id="9124"></rect>
	<rect x="1149.833" y="278.286" class="cabin bella-experience-balcony" width="19.667" height="49.417" data-id="9128"></rect>
	<rect x="1129.5" y="278.286" class="cabin bella-experience-balcony" width="20.333" height="49.417" data-id="9130"></rect>
	<rect x="1109.5" y="278.286" class="cabin bella-experience-balcony" width="20" height="49.417" data-id="9132"></rect>
	<rect x="1089.75" y="278.286" class="cabin bella-experience-balcony" width="19.75" height="49.417" data-id="9134"></rect>
	<rect x="1069.25" y="278.286" class="cabin bella-experience-balcony" width="20.5" height="49.417" data-id="9136"></rect>
	<rect x="1049" y="278.286" class="cabin bella-experience-balcony" width="20.25" height="49.417" data-id="9138"></rect>
	<rect x="1030" y="278.286" class="cabin bella-experience-balcony" width="19" height="49.417" data-id="9140"></rect>
	<rect x="1009.25" y="278.286" class="cabin bella-experience-balcony" width="20.75" height="49.417" data-id="9142"></rect>
	<rect x="989.25" y="278.286" class="cabin bella-experience-balcony" width="20" height="49.417" data-id="9144"></rect>
	<rect x="969" y="278.286" class="cabin bella-experience-balcony" width="20.25" height="49.417" data-id="9146"></rect>
	<rect x="948.25" y="278.286" class="cabin bella-experience-balcony" width="20.75" height="49.417" data-id="9148"></rect>
	<rect x="928.25" y="278.286" class="cabin bella-experience-balcony" width="20" height="49.417" data-id="9150"></rect>
	<rect x="908.75" y="278.286" class="cabin bella-experience-balcony" width="19.5" height="49.417" data-id="9152"></rect>
	<rect x="888" y="278.286" class="cabin bella-experience-balcony" width="20.75" height="49.417" data-id="9156"></rect>
	<rect x="868.5" y="278.286" class="cabin bella-experience-balcony" width="19.5" height="49.417" data-id="9160"></rect>
	<rect x="848" y="278.286" class="cabin bella-experience-balcony" width="20.5" height="49.417" data-id="9164"></rect>
	<rect x="828.5" y="278.286" class="cabin bella-experience-balcony" width="19.5" height="49.417" data-id="9168"></rect>
	<rect x="808" y="278.286" class="cabin bella-experience-balcony" width="20.5" height="49.417" data-id="9172"></rect>
	<rect x="787.5" y="278.286" class="cabin bella-experience-balcony" width="20.5" height="49.417" data-id="9176"></rect>
	<rect x="767.25" y="278.286" class="cabin bella-experience-balcony" width="20.25" height="49.417" data-id="9180"></rect>
	<rect x="747" y="278.286" class="cabin bella-experience-balcony" width="20.25" height="49.417" data-id="9184"></rect>
	<rect x="727.5" y="278.286" class="cabin bella-experience-balcony" width="19.5" height="49.417" data-id="9186"></rect>
	<rect x="688" y="278.286" class="cabin" width="19.75" height="49.417"></rect>
	<rect x="667.25" y="278.286" class="cabin bella-experience-balcony" width="20.75" height="49.417" data-id="9192"></rect>
	<polygon class="cabin auera-experience-grand-suite" points="546,302.703 566.75,327.703 566.75,228.703 
		546,228.703 	" data-id="9206"></polygon>
	<polygon class="cabin fantastica-experience-suite" points="526.5,278.953 546,302.953 546,228.703 526.5,228.703 
			" data-id="9208"></polygon>
	<rect x="506.75" y="228.703" class="cabin auera-experience-suite" width="19.75" height="50.25" data-id="9210"></rect>
	<rect x="486.25" y="228.703" class="cabin auera-experience-suite" width="20.5" height="50.25" data-id="9212"></rect>
	<rect x="466.5" y="228.703" class="cabin auera-experience-suite" width="19.75" height="50.25" data-id="9214"></rect>
	<rect x="446.75" y="228.703" class="cabin auera-experience-suite" width="19.75" height="50.25" data-id="9216"></rect>
	<rect x="426.5" y="228.703" class="cabin auera-experience-suite" width="20.25" height="50.25" data-id="9218"></rect>
	<rect x="406.25" y="228.703" class="cabin auera-experience-suite" width="20.25" height="50.25" data-id="9220"></rect>
	<rect x="386.5" y="228.703" class="cabin auera-experience-suite" width="19.75" height="50.25" data-id="9222"></rect>
	<rect x="366.5" y="228.703" class="cabin auera-experience-suite" width="20" height="50.25" data-id="9224"></rect>
	<rect x="346.25" y="228.703" class="cabin auera-experience-suite" width="20.25" height="50.25" data-id="9226"></rect>
	<rect x="286.25" y="228.703" class="cabin auera-experience-suite" width="19.25" height="50.25" data-id="9232"></rect>
	<rect x="266.25" y="228.703" class="cabin auera-experience-suite" width="20" height="50.25" data-id="9234"></rect>
	<rect x="245.75" y="228.703" class="cabin auera-experience-suite" width="20.5" height="50.25" data-id="9236"></rect>
	<rect x="225.5" y="228.703" class="cabin auera-experience-suite" width="20.25" height="50.25" data-id="9238"></rect>
	<rect x="204.5" y="228.703" class="cabin auera-experience-suite" width="21" height="50.25" data-id="9240"></rect>
	<rect x="185.75" y="228.703" class="cabin auera-experience-suite" width="18.75" height="50.25" data-id="9242"></rect>
	<rect x="165.5" y="228.703" class="cabin auera-experience-suite" width="20.25" height="50.25" data-id="9244"></rect>
	<rect x="145.25" y="228.703" class="cabin auera-experience-suite" width="20.25" height="50.25" data-id="9246"></rect>
	<rect x="125.25" y="228.703" class="cabin auera-experience-suite" width="20" height="50.25" data-id="9248"></rect>
	<rect x="105.75" y="228.703" class="cabin auera-experience-suite" width="19.5" height="50.25" data-id="9250"></rect>
	<rect x="85.25" y="228.703" class="cabin auera-experience-suite" width="20.5" height="50.25" data-id="9252"></rect>
	<rect x="65.25" y="228.703" class="cabin bella-experience-balcony" width="20" height="50.25" data-id="9254"></rect>
	<rect x="45.75" y="228.703" class="cabin bella-experience-balcony" width="19.5" height="50.25" data-id="9256"></rect>
	<path class="cabin auera-experience-suite" d="M43.25,212.453c1.75,0,2.5,0,2.5,0v66.5c0,0-17.75,0-22.5,0
		s-7.75,0.876-7.75-5.125c0-6,0-0.749,0-26.75C15.5,219.885,34.266,212.453,43.25,212.453z" data-id="9258"></path>
	<rect x="1953.334" y="227.869" class="cabin auera-experience-balcony" width="20.54" height="50.834" data-id="9026"></rect>
	<rect x="1973.874" y="227.869" class="cabin auera-experience-balcony" width="19.75" height="50.834" data-id="9024"></rect>
	<rect x="1993.624" y="227.869" class="cabin auera-experience-balcony" width="19.626" height="50.834" data-id="9022"></rect>
	<rect x="2013.25" y="227.869" class="cabin auera-experience-balcony" width="20.25" height="50.834" data-id="9020"></rect>
	<rect x="2033.5" y="227.869" class="cabin auera-experience-balcony" width="19.5" height="50.834" data-id="9018"></rect>
	<rect x="2053" y="227.869" class="cabin bella-experience-balcony" width="20.25" height="50.834" data-id="9016"></rect>
	<rect x="2073.25" y="227.869" class="cabin bella-experience-balcony" width="20.25" height="50.834" data-id="9014"></rect>
	<rect x="2093.5" y="227.869" class="cabin bella-experience-balcony" width="20" height="50.834" data-id="9012"></rect>
	<rect x="2113.5" y="227.869" class="cabin bella-experience-balcony" width="20.5" height="50.834" data-id="9008"></rect>
	<rect x="2154" y="227.869" class="cabin bella-experience-balcony" width="19.75" height="50.834" data-id="9004"></rect>
	<path class="cabin fantastica-experience-suite" d="M2209.5,212.953h-35.75v65.75h19.75
		C2203.25,260.578,2209.625,226.078,2209.5,212.953z" data-id="9002"></path>
	<rect x="1652.873" y="227.869" class="cabin auera-experience-balcony" width="19.962" height="50.834" data-id="9056"></rect>
	<rect x="647.5" y="278.286" class="cabin bella-experience-balcony" width="19.75" height="49.417" data-id="9194"></rect>
	<polygon class="cabin bella-experience-balcony" points="566.75,278.286 586.75,278.203 586.75,327.703 
		566.75,327.703 	" data-id="9204"></polygon>
	<rect x="326" y="228.703" class="cabin auera-experience-suite" width="20.25" height="50.25" data-id="9228"></rect>
	<rect x="305.5" y="228.703" class="cabin auera-experience-suite" width="20.5" height="50.25" data-id="9230"></rect>
	<rect x="1632.873" y="227.869" class="cabin auera-experience-balcony" width="20" height="50.834" data-id="9058"></rect>
	<rect x="688" y="278.286" class="cabin bella-experience-balcony" width="19.75" height="49.417" data-id="9190"></rect>
	<rect x="707.75" y="278.286" class="cabin bella-experience-balcony" width="19.75" height="49.417" data-id="9188"></rect>
	<rect x="627.75" y="278.286" class="cabin bella-experience-balcony" width="19.75" height="49.417" data-id="9196"></rect>
	<rect x="2134" y="227.869" class="cabin bella-experience-balcony" width="20" height="50.834" data-id="9006"></rect>
	<rect x="606.75" y="278.286" class="cabin bella-experience-balcony" width="21" height="49.417" data-id="9198"></rect>
	<polygon class="cabin bella-experience-balcony" points="586.75,278.203 606.75,278.286 606.75,327.703 
		586.75,327.703 	" data-id="9200"></polygon>
	<rect x="2151.483" y="171.385" class="cabin auera-experience-suite-with-whirlpool-bath" width="58.019" height="38.158" data-id="9001"></rect>
	<rect x="2087.26" y="171.385" class="cabin bella-experience-inside" width="43.213" height="18.615" data-id="9011"></rect>
	<rect x="2087.26" y="190" class="cabin bella-experience-inside" width="43.213" height="19.543" data-id="9010"></rect>
	<rect x="1492.418" y="123.5" class="cabin bella-experience-inside" width="29.083" height="43.917" data-id="9075"></rect>
	<rect x="1492.418" y="212.417" class="cabin bella-experience-inside" width="29.083" height="44" data-id="9072"></rect>
	<rect x="1331" y="212.5" class="cabin bella-experience-inside" width="19.835" height="43.917" data-id="9090"></rect>
	<rect x="1310.75" y="212.5" class="cabin bella-experience-inside" width="20.25" height="43.917" data-id="9094"></rect>
	<rect x="1290.5" y="212.5" class="cabin bella-experience-inside" width="20.25" height="43.917" data-id="9098"></rect>
	<rect x="1270.5" y="212.5" class="cabin bella-experience-inside" width="20" height="43.917" data-id="9102"></rect>
	<rect x="1250.5" y="212.5" class="cabin bella-experience-inside" width="20" height="43.917" data-id="9106"></rect>
	<rect x="1230.5" y="212.5" class="cabin bella-experience-inside" width="20" height="43.917" data-id="9110"></rect>
	<rect x="1210.25" y="212.5" class="cabin bella-experience-inside" width="20.25" height="43.917" data-id="9114"></rect>
	<rect x="1190.418" y="212.5" class="cabin bella-experience-inside" width="19.832" height="43.917" data-id="9118"></rect>
	<rect x="1169.5" y="212.5" class="cabin bella-experience-inside" width="20.918" height="43.917" data-id="9122"></rect>
	<rect x="1141.417" y="212.5" class="cabin bella-experience-inside" width="28.083" height="43.917" data-id="9126"></rect>
	<rect x="1330.583" y="123.417" class="cabin bella-experience-inside" width="30.792" height="44.083" data-id="9093"></rect>
	<rect x="1310.75" y="123.417" class="cabin bella-experience-inside" width="19.833" height="44.083" data-id="9097"></rect>
	<rect x="1290.5" y="123.417" class="cabin bella-experience-inside" width="20.25" height="44.083" data-id="9101"></rect>
	<rect x="1270.5" y="123.417" class="cabin bella-experience-inside" width="20" height="44.083" data-id="9105"></rect>
	<rect x="1250.5" y="123.417" class="cabin bella-experience-inside" width="20" height="44.083" data-id="9109"></rect>
	<rect x="1230.5" y="123.417" class="cabin bella-experience-inside" width="20" height="44.083" data-id="9113"></rect>
	<rect x="1210.668" y="123.417" class="cabin bella-experience-inside" width="19.832" height="44.083" data-id="9119"></rect>
	<rect x="1190.418" y="123.417" class="cabin bella-experience-inside" width="20.25" height="44.083" data-id="9123"></rect>
	<rect x="828.5" y="123.5" class="cabin bella-experience-inside" width="29" height="43.917" data-id="9161"></rect>
	<rect x="808.416" y="123.5" class="cabin bella-experience-inside" width="20.084" height="43.917" data-id="9165"></rect>
	<rect x="788" y="123.5" class="cabin bella-experience-inside" width="20.417" height="43.917" data-id="9169"></rect>
	<rect x="767.25" y="123.5" class="cabin bella-experience-inside" width="20.75" height="43.917" data-id="9173"></rect>
	<rect x="748.25" y="123.5" class="cabin bella-experience-inside" width="19" height="43.917" data-id="9177"></rect>
	<rect x="577.417" y="123.5" class="cabin bella-experience-inside" width="29" height="43.917" data-id="9197"></rect>
	<rect x="577.417" y="212.5" class="cabin bella-experience-inside" width="29.083" height="43.917" data-id="9202"></rect>
	<rect x="888.375" y="212.562" class="cabin bella-experience-inside" width="20.062" height="43.812" data-id="9154"></rect>
	<rect x="868.5" y="212.562" class="cabin bella-experience-inside" width="19.875" height="43.812" data-id="9158"></rect>
	<rect x="848.438" y="212.562" class="cabin bella-experience-inside" width="20.062" height="43.812" data-id="9162"></rect>
	<rect x="828.5" y="212.562" class="cabin bella-experience-inside" width="19.938" height="43.812" data-id="9166"></rect>
	<rect x="808.375" y="212.562" class="cabin bella-experience-inside" width="20.125" height="43.812" data-id="9170"></rect>
	<rect x="788" y="212.562" class="cabin bella-experience-inside" width="20.375" height="43.812" data-id="9174"></rect>
	<rect x="767.438" y="212.562" class="cabin bella-experience-inside" width="20.562" height="43.812" data-id="9178"></rect>
	<rect x="748.375" y="212.562" class="cabin bella-experience-inside" width="19.062" height="43.812" data-id="9182"></rect>
</g>
</svg>
