<svg id="floor-7" viewBox="0 0 2240 380">
<g>
	<path class="floor-base" d="M1966.25,336.75c-39.25,0-90.5,0-90.5,0
		c0,3.25-1.5,8-6.75,8s-274,0-274,0v-27H963c-14.87,7.136-56.629,26.279-114.25,27c-30,0.375-60.75-6-78.75-13.25l-17.207,9.082
		l-32.543-3.332H681v14.5h-74.5V318H271.25v27.75H198v20.916c0,0-91,0-128.333,0C21.75,366.666,4,261.5,4,190
		S21.75,13.333,69.667,13.333c37.333,0,128.333,0,128.333,0V34.25h73.25V62H606.5V28.25H681v14.5h39.25l32.543-3.332L770,48.5
		c18-7.25,48.75-13.625,78.75-13.25c57.621,0.72,99.379,19.864,114.25,27h632v-27c0,0,268.75,0,274,0s6.75,4.75,6.75,8
		c0,0,51.25,0,90.5,0c151,0,269.583,135.083,269.583,146.75C2235.833,201.667,2117.25,336.75,1966.25,336.75z"/>
</g>
</svg>
