<svg id="floor-6" viewBox="0 0 2240 380">
<g>
	<path class="floor-base" d="M1923,339.5c-66,0-307.666,0-307.666,0v7h-12.5
		l-5.668,14h-72.664l-6.668-14.167h-28.166l-5.5,14.167h-73.832l-6.334-14.167h-28.5l-5.5,14.167h-73.498l-6.334-14.167h-31.334
		l-6.5,14.167h-85l-6.5-13.834h-31.834l-6.166,13.834h-83.167l-6.667-14h-15l-6,14H668l-6.167-13.834h-64.167L592,360.5h-72.333
		l-6.667-14h-28.25l-5.5,14h-74l-6.5-13.5h-28.5l-5.5,13.5H291l-6-14.25h-16v-6.75c0,0-205,0-231.5,0C16.998,339.5,4,219.666,4,190
		C4,160.333,16.998,40.5,37.5,40.5c26.5,0,231.5,0,231.5,0v-6.75h16l6-14.25h73.75l5.5,13.5h28.5l6.5-13.5h74l5.5,14H513l6.667-14
		H592l5.667,13.833h64.167L668,19.5h344.002l6,14h15l6.667-14h83.167l6.167,13.833h31.833l6.5-13.833h85.001l6.5,14.167h31.333
		l6.334-14.167h73.498l5.5,14.167h28.5l6.335-14.167h73.831l5.5,14.167h28.167l6.667-14.167h72.665l5.667,14h12.5v7
		c0,0,241.667,0,307.667,0c189.665,0,312.832,139.395,312.832,149.5C2235.833,198.463,2109.666,339.5,1923,339.5z"/>
</g>
</svg>
