<svg id="floor-12" viewBox="0 0 2240 380">
<g>
	<path class="floor-base" d="M41.5,207.334l4.75,3.416v0.916
		c-17.125,0-31.333,14.209-31.333,32.668c-4,0-9.5,4.834-9.5,9.5s0,22.417,0,28.584c0,6.166,4.833,13.833,16.333,13.833
		s516.916,0,516.916,0l40,49.749h1013.039L1632,296c0,0,549.25,0,571.25,0c17.75,0,32-64,32-106s-14.25-106-32-106
		c-22,0-571.25,0-571.25,0l-40.295-50H578.667l-40,49.749c0,0-505.416,0-516.916,0S5.417,91.416,5.417,97.583s0,23.917,0,28.583
		s5.5,9.5,9.5,9.5c0,18.458,14.208,32.667,31.333,32.667v0.917l-4.75,3.417V207.334z"></path>
	<rect x="1936.501" y="98.5" class="cabin fantastica-experience-balcony" width="20.833" height="52.833" data-id="12027"></rect>
	<rect x="1915.834" y="98.5" class="cabin fantastica-experience-balcony" width="20.667" height="52.833" data-id="12029"></rect>
	<rect x="1894.501" y="98.5" class="cabin fantastica-experience-balcony" width="21.333" height="52.833" data-id="12031"></rect>
	<rect x="1874.334" y="98.5" class="cabin fantastica-experience-balcony" width="20.167" height="52.833" data-id="12033"></rect>
	<rect x="1853.501" y="98.5" class="cabin fantastica-experience-balcony" width="20.833" height="52.833" data-id="12035"></rect>
	<rect x="1832.667" y="98.5" class="cabin fantastica-experience-balcony" width="20.834" height="52.833" data-id="12037"></rect>
	<rect x="1812.334" y="98.5" class="cabin fantastica-experience-balcony" width="20.333" height="52.833" data-id="12039"></rect>
	<rect x="1791.5" y="98.5" class="cabin fantastica-experience-balcony" width="20.834" height="52.833" data-id="12041"></rect>
	<rect x="1771" y="98.5" class="cabin fantastica-experience-balcony" width="20.5" height="52.833" data-id="12043"></rect>
	<rect x="1749.667" y="98.5" class="cabin fantastica-experience-balcony" width="21.333" height="52.833" data-id="12045"></rect>
	<rect x="1726.502" y="98.5" class="cabin fantastica-experience-balcony" width="23.165" height="52.833" data-id="12049"></rect>
	<rect x="1708.335" y="98.5" class="cabin fantastica-experience-balcony" width="18.167" height="52.833" data-id="12053"></rect>
	<rect x="1686.835" y="98.5" class="cabin fantastica-experience-balcony" width="21.5" height="52.833" data-id="12055"></rect>
	<rect x="1665.835" y="98.5" class="cabin fantastica-experience-balcony" width="21" height="52.833" data-id="12057"></rect>
	<polygon class="cabin fantastica-experience-suite" points="1604.039,72.5 1624.873,98.5 1624.873,151.334 
		1604.039,151.334 	" data-id="12065"></polygon>
	<polygon class="cabin auera-experience-grand-suite" points="1583.372,46.5 1604.039,72.5 1604.039,151.334 
		1583.372,151.334 	" data-id="12067"></polygon>
	<rect x="1561.25" y="46.5" class="cabin fantastica-experience-balcony" width="22.5" height="53.417" data-id="12069"></rect>
	<rect x="1541.5" y="46.5" class="cabin fantastica-experience-balcony" width="19.75" height="53.417" data-id="12073"></rect>
	<rect x="1521" y="46.5" class="cabin fantastica-experience-balcony" width="20.5" height="53.417" data-id="12075"></rect>
	<rect x="1500.75" y="46.5" class="cabin fantastica-experience-balcony" width="20.25" height="53.417" data-id="12077"></rect>
	<rect x="1479.75" y="46.5" class="cabin fantastica-experience-balcony" width="21" height="53.417" data-id="12079"></rect>
	<rect x="1458.5" y="46.5" class="cabin fantastica-experience-balcony" width="21.25" height="53.417" data-id="12081"></rect>
	<rect x="1438.25" y="46.5" class="cabin fantastica-experience-balcony" width="20.25" height="53.417" data-id="12083"></rect>
	<rect x="1417.25" y="46.5" class="cabin fantastica-experience-balcony" width="21" height="53.417" data-id="12085"></rect>
	<rect x="1396" y="46.5" class="cabin fantastica-experience-balcony" width="21.25" height="53.417" data-id="12087"></rect>
	<rect x="1375.25" y="46.5" class="cabin fantastica-experience-balcony" width="20.75" height="53.417" data-id="12091"></rect>
	<rect x="1354.25" y="46.5" class="cabin fantastica-experience-balcony" width="21" height="53.417" data-id="12095"></rect>
	<rect x="1333.5" y="46.5" class="cabin fantastica-experience-balcony" width="20.75" height="53.417" data-id="12099"></rect>
	<rect x="1313" y="46.5" class="cabin fantastica-experience-balcony" width="20.5" height="53.417" data-id="12101"></rect>
	<rect x="1292.75" y="46.5" class="cabin fantastica-experience-balcony" width="20.25" height="53.417" data-id="12105"></rect>
	<rect x="1271.5" y="46.5" class="cabin fantastica-experience-balcony" width="21.25" height="53.417" data-id="12109"></rect>
	<rect x="1250.5" y="46.5" class="cabin fantastica-experience-balcony" width="21" height="53.417" data-id="12113"></rect>
	<rect x="1229.5" y="46.5" class="cabin fantastica-experience-balcony" width="21" height="53.417" data-id="12119"></rect>
	<rect x="1209.5" y="46.5" class="cabin fantastica-experience-balcony" width="20" height="53.417" data-id="12123"></rect>
	<rect x="1188.25" y="46.5" class="cabin fantastica-experience-balcony" width="21.25" height="53.417" data-id="12127"></rect>
	<rect x="1167" y="46.5" class="cabin fantastica-experience-balcony" width="21.25" height="53.417" data-id="12131"></rect>
	<rect x="1146.5" y="46.5" class="cabin fantastica-experience-balcony" width="20.5" height="53.417" data-id="12135"></rect>
	<rect x="1125.833" y="46.5" class="cabin fantastica-experience-balcony" width="20.667" height="53.417" data-id="12139"></rect>
	<rect x="1105.5" y="46.5" class="cabin fantastica-experience-balcony" width="20.333" height="53.417" data-id="12141"></rect>
	<rect x="1084.5" y="46.5" class="cabin fantastica-experience-balcony" width="21" height="53.417" data-id="12143"></rect>
	<rect x="1063.75" y="46.5" class="cabin fantastica-experience-balcony" width="20.75" height="53.417" data-id="12145"></rect>
	<rect x="1042.25" y="46.5" class="cabin fantastica-experience-balcony" width="21.5" height="53.417" data-id="12147"></rect>
	<rect x="1022" y="46.5" class="cabin fantastica-experience-balcony" width="20.25" height="53.417" data-id="12149"></rect>
	<rect x="1001" y="46.5" class="cabin fantastica-experience-balcony" width="21" height="53.417" data-id="12151"></rect>
	<rect x="980.25" y="46.5" class="cabin fantastica-experience-balcony" width="20.75" height="53.417" data-id="12153"></rect>
	<rect x="959.25" y="46.5" class="cabin fantastica-experience-balcony" width="21" height="53.417" data-id="12155"></rect>
	<rect x="939" y="46.5" class="cabin fantastica-experience-balcony" width="20.25" height="53.417" data-id="12157"></rect>
	<rect x="918.25" y="46.5" class="cabin fantastica-experience-balcony" width="20.75" height="53.417" data-id="12159"></rect>
	<rect x="897.25" y="46.5" class="cabin fantastica-experience-balcony" width="21" height="53.417" data-id="12161"></rect>
	<rect x="875.75" y="46.5" class="cabin fantastica-experience-balcony" width="21.5" height="53.417" data-id="12165"></rect>
	<rect x="855" y="46.5" class="cabin fantastica-experience-balcony" width="20.75" height="53.417" data-id="12169"></rect>
	<rect x="834.5" y="46.5" class="cabin fantastica-experience-balcony" width="20.5" height="53.417" data-id="12173"></rect>
	<rect x="814" y="46.5" class="cabin fantastica-experience-balcony" width="20.5" height="53.417" data-id="12177"></rect>
	<rect x="793.5" y="46.5" class="cabin fantastica-experience-balcony" width="20.5" height="53.417" data-id="12181"></rect>
	<rect x="772" y="46.5" class="cabin fantastica-experience-balcony" width="21.5" height="53.417" data-id="12185"></rect>
	<rect x="751.5" y="46.5" class="cabin fantastica-experience-balcony" width="20.5" height="53.417" data-id="12187"></rect>
	<rect x="730.25" y="46.5" class="cabin fantastica-experience-balcony" width="21.25" height="53.417" data-id="12189"></rect>
	<rect x="710" y="46.5" class="cabin fantastica-experience-balcony" width="20.25" height="53.417" data-id="12191"></rect>
	<rect x="689.5" y="46.5" class="cabin fantastica-experience-balcony" width="20.5" height="53.417" data-id="12193"></rect>
	<rect x="648" y="46.5" class="cabin" width="20.75" height="53.417"></rect>
	<rect x="627.25" y="46.5" class="cabin fantastica-experience-balcony" width="20.75" height="53.417" data-id="12199"></rect>
	<polygon class="cabin auera-experience-grand-suite" points="564,72.5 585.75,46.5 585.75,150.5 564,150.5 	" data-id="12207"></polygon>
	<polygon class="cabin fantastica-experience-suite" points="543.5,97.25 564,72.25 564,150.5 543.5,150.5 	" data-id="12209"></polygon>
	<rect x="522.75" y="97.25" class="cabin fantastica-experience-balcony" width="20.75" height="53.25" data-id="12211"></rect>
	<rect x="502.25" y="97.25" class="cabin fantastica-experience-balcony" width="20.5" height="53.25" data-id="12215"></rect>
	<rect x="481.5" y="97.25" class="cabin fantastica-experience-balcony" width="20.75" height="53.25" data-id="12219"></rect>
	<rect x="460.75" y="97.25" class="cabin fantastica-experience-balcony" width="20.75" height="53.25" data-id="12223"></rect>
	<rect x="439.5" y="97.25" class="cabin fantastica-experience-balcony" width="21.25" height="53.25" data-id="12225"></rect>
	<rect x="419.25" y="97.25" class="cabin fantastica-experience-balcony" width="20.25" height="53.25" data-id="12227"></rect>
	<rect x="398.5" y="97.25" class="cabin fantastica-experience-balcony" width="20.75" height="53.25" data-id="12229"></rect>
	<rect x="377.5" y="97.25" class="cabin fantastica-experience-balcony" width="21" height="53.25" data-id="12233"></rect>
	<rect x="356.25" y="97.25" class="cabin fantastica-experience-balcony" width="21.25" height="53.25" data-id="12235"></rect>
	<rect x="298.25" y="97.25" class="cabin fantastica-experience-balcony" width="21.25" height="53.25" data-id="12241"></rect>
	<rect x="277.25" y="97.25" class="cabin fantastica-experience-balcony" width="21" height="53.25" data-id="12243"></rect>
	<rect x="256.75" y="97.25" class="cabin fantastica-experience-balcony" width="20.5" height="53.25" data-id="12245"></rect>
	<rect x="235.5" y="97.25" class="cabin fantastica-experience-balcony" width="21.25" height="53.25" data-id="12247"></rect>
	<rect x="214.5" y="97.25" class="cabin fantastica-experience-balcony" width="21" height="53.25" data-id="12249"></rect>
	<rect x="193.75" y="97.25" class="cabin fantastica-experience-balcony" width="20.75" height="53.25" data-id="12251"></rect>
	<rect x="172.5" y="97.25" class="cabin fantastica-experience-balcony" width="21.25" height="53.25" data-id="12253"></rect>
	<rect x="151.25" y="97.25" class="cabin fantastica-experience-balcony" width="21.25" height="53.25" data-id="12255"></rect>
	<rect x="131.25" y="97.25" class="cabin fantastica-experience-balcony" width="20" height="53.25" data-id="12257"></rect>
	<rect x="109.75" y="97.25" class="cabin fantastica-experience-balcony" width="21.5" height="53.25" data-id="12259"></rect>
	<rect x="89.25" y="97.25" class="cabin fantastica-experience-balcony" width="20.5" height="53.25" data-id="12261"></rect>
	<rect x="68.25" y="97.25" class="cabin fantastica-experience-balcony" width="21" height="53.25" data-id="12263"></rect>
	<rect x="46.75" y="97.25" class="cabin fantastica-experience-balcony" width="21.5" height="53.25" data-id="12265"></rect>
	<path class="cabin auera-experience-suite" d="M44.25,167.75c1.75,0,2.5,0,2.5,0v-70.5c0,0-18.75,0-23.5,0
		s-7.75,1.124-7.75,7.125s0,3.75,0,29.75S37.5,167.75,44.25,167.75z" data-id="12267"></path>
	<rect x="1957.334" y="98.5" class="cabin fantastica-experience-balcony" width="20.54" height="52.833" data-id="12025"></rect>
	<rect x="1977.874" y="98.5" class="cabin fantastica-experience-balcony" width="20.75" height="52.833" data-id="12023"></rect>
	<rect x="1998.624" y="98.5" class="cabin fantastica-experience-balcony" width="20.626" height="52.833" data-id="12021"></rect>
	<rect x="2019.25" y="98.5" class="cabin fantastica-experience-balcony" width="21.25" height="52.833" data-id="12019"></rect>
	<rect x="2040.5" y="98.5" class="cabin fantastica-experience-balcony" width="20.5" height="52.833" data-id="12015"></rect>
	<rect x="2061" y="98.5" class="cabin bella-experience-balcony" width="20.25" height="52.833" data-id="12013"></rect>
	<rect x="2081.25" y="98.5" class="cabin bella-experience-balcony" width="21.25" height="52.833" data-id="12011"></rect>
	<rect x="2102.5" y="98.5" class="cabin bella-experience-balcony" width="21" height="52.833" data-id="12009"></rect>
	<rect x="2123.5" y="98.5" class="cabin bella-experience-balcony" width="20.5" height="52.833" data-id="12007"></rect>
	<rect x="2144" y="98.5" class="cabin bella-experience-balcony" width="20.75" height="52.833" data-id="12005"></rect>
	<path class="cabin wellness-balcony" d="M2211.5,166.25h-46.75V98.5h30.75
		C2205.25,116.625,2211.625,153.125,2211.5,166.25z" data-id="12003"></path>
	<rect x="1645.873" y="98.5" class="cabin fantastica-experience-balcony" width="19.962" height="52.833" data-id="12059"></rect>
	<rect x="606.5" y="46.5" class="cabin fantastica-experience-balcony" width="20.75" height="53.417" data-id="12201"></rect>
	<rect x="585.75" y="46.5" class="cabin fantastica-experience-balcony" width="20.75" height="53.417" data-id="12205"></rect>
	<rect x="340" y="97.25" class="cabin fantastica-experience-balcony" width="16.25" height="53.25" data-id="12237"></rect>
	<rect x="319.5" y="97.25" class="cabin fantastica-experience-balcony" width="20.5" height="53.25" data-id="12239"></rect>
	<rect x="1624.873" y="98.5" class="cabin fantastica-experience-balcony" width="21" height="52.833" data-id="12061"></rect>
	<rect x="648" y="46.5" class="cabin fantastica-experience-balcony" width="20.75" height="53.417" data-id="12197"></rect>
	<rect x="668.75" y="46.5" class="cabin fantastica-experience-balcony" width="20.75" height="53.417" data-id="12195"></rect>
	<rect x="1936.501" y="228.916" class="cabin fantastica-experience-balcony" width="20.833" height="52.834" data-id="12024"></rect>
	<rect x="1915.834" y="228.916" class="cabin fantastica-experience-balcony" width="20.667" height="52.834" data-id="12026"></rect>
	<rect x="1894.501" y="228.916" class="cabin fantastica-experience-balcony" width="21.333" height="52.834" data-id="12028"></rect>
	<rect x="1874.334" y="228.916" class="cabin fantastica-experience-balcony" width="20.167" height="52.834" data-id="12030"></rect>
	<rect x="1853.501" y="228.916" class="cabin fantastica-experience-balcony" width="20.833" height="52.834" data-id="12032"></rect>
	<rect x="1832.667" y="228.916" class="cabin fantastica-experience-balcony" width="20.834" height="52.834" data-id="12034"></rect>
	<rect x="1812.334" y="228.916" class="cabin fantastica-experience-balcony" width="20.333" height="52.834" data-id="12036"></rect>
	<rect x="1791.5" y="228.916" class="cabin fantastica-experience-balcony" width="20.834" height="52.834" data-id="12038"></rect>
	<rect x="1771" y="228.916" class="cabin fantastica-experience-balcony" width="20.5" height="52.834" data-id="12040"></rect>
	<rect x="1749.667" y="228.916" class="cabin fantastica-experience-balcony" width="21.333" height="52.834" data-id="12042"></rect>
	<rect x="1726.502" y="228.916" class="cabin fantastica-experience-balcony" width="23.165" height="52.834" data-id="12046"></rect>
	<rect x="1708.335" y="228.916" class="cabin fantastica-experience-balcony" width="18.167" height="52.834" data-id="12050"></rect>
	<rect x="1686.835" y="228.916" class="cabin fantastica-experience-balcony" width="21.5" height="52.834" data-id="12052"></rect>
	<rect x="1665.835" y="228.916" class="cabin fantastica-experience-balcony" width="21" height="52.834" data-id="12054"></rect>
	<polygon class="cabin fantastica-experience-suite" points="1604.039,307.75 1624.873,281.75 1624.873,228.916 
		1604.039,228.916 	" data-id="12062"></polygon>
	<polygon class="cabin auera-experience-grand-suite" points="1583.372,332.75 1604.039,307.75 1604.039,228.916 
		1583.372,228.916 	" data-id="12064"></polygon>
	<rect x="1561.25" y="279.333" class="cabin fantastica-experience-balcony" width="22.5" height="53.417" data-id="12066"></rect>
	<rect x="1541.5" y="279.333" class="cabin fantastica-experience-balcony" width="19.75" height="53.417" data-id="12070"></rect>
	<rect x="1521" y="279.333" class="cabin fantastica-experience-balcony" width="20.5" height="53.417" data-id="12072"></rect>
	<rect x="1500.75" y="279.333" class="cabin fantastica-experience-balcony" width="20.25" height="53.417" data-id="12074"></rect>
	<rect x="1479.75" y="279.333" class="cabin fantastica-experience-balcony" width="21" height="53.417" data-id="12076"></rect>
	<rect x="1458.5" y="279.333" class="cabin fantastica-experience-balcony" width="21.25" height="53.417" data-id="12078"></rect>
	<rect x="1438.25" y="279.333" class="cabin fantastica-experience-balcony" width="20.25" height="53.417" data-id="12080"></rect>
	<rect x="1417.25" y="279.333" class="cabin fantastica-experience-balcony" width="21" height="53.417" data-id="12082"></rect>
	<rect x="1396" y="279.333" class="cabin fantastica-experience-balcony" width="21.25" height="53.417" data-id="12084"></rect>
	<rect x="1375.25" y="279.333" class="cabin fantastica-experience-balcony" width="20.75" height="53.417" data-id="12088"></rect>
	<rect x="1354.25" y="279.333" class="cabin fantastica-experience-balcony" width="21" height="53.417" data-id="12092"></rect>
	<rect x="1333.5" y="279.333" class="cabin fantastica-experience-balcony" width="20.75" height="53.417" data-id="12096"></rect>
	<rect x="1313" y="279.333" class="cabin fantastica-experience-balcony" width="20.5" height="53.417" data-id="12100"></rect>
	<rect x="1292.75" y="279.333" class="cabin fantastica-experience-balcony" width="20.25" height="53.417" data-id="12104"></rect>
	<rect x="1271.5" y="279.333" class="cabin fantastica-experience-balcony" width="21.25" height="53.417" data-id="12108"></rect>
	<rect x="1250.5" y="279.333" class="cabin fantastica-experience-balcony" width="21" height="53.417" data-id="12112"></rect>
	<rect x="1229.5" y="279.333" class="cabin fantastica-experience-balcony" width="21" height="53.417" data-id="12116"></rect>
	<rect x="1209.5" y="279.333" class="cabin fantastica-experience-balcony" width="20" height="53.417" data-id="12120"></rect>
	<rect x="1188.25" y="279.333" class="cabin fantastica-experience-balcony" width="21.25" height="53.417" data-id="12124"></rect>
	<rect x="1167" y="279.333" class="cabin fantastica-experience-balcony" width="21.25" height="53.417" data-id="12126"></rect>
	<rect x="1146.5" y="279.333" class="cabin fantastica-experience-balcony" width="20.5" height="53.417" data-id="12128"></rect>
	<rect x="1125.833" y="279.333" class="cabin fantastica-experience-balcony" width="20.667" height="53.417" data-id="12130"></rect>
	<rect x="1105.5" y="279.333" class="cabin fantastica-experience-balcony" width="20.333" height="53.417" data-id="12132"></rect>
	<rect x="1084.5" y="279.333" class="cabin fantastica-experience-balcony" width="21" height="53.417" data-id="12134"></rect>
	<rect x="1063.75" y="279.333" class="cabin fantastica-experience-balcony" width="20.75" height="53.417" data-id="12136"></rect>
	<rect x="1042.25" y="279.333" class="cabin fantastica-experience-balcony" width="21.5" height="53.417" data-id="12138"></rect>
	<rect x="1022" y="279.333" class="cabin fantastica-experience-balcony" width="20.25" height="53.417" data-id="12140"></rect>
	<rect x="1001" y="279.333" class="cabin fantastica-experience-balcony" width="21" height="53.417" data-id="12142"></rect>
	<rect x="980.25" y="279.333" class="cabin fantastica-experience-balcony" width="20.75" height="53.417" data-id="12144"></rect>
	<rect x="959.25" y="279.333" class="cabin fantastica-experience-balcony" width="21" height="53.417" data-id="12146"></rect>
	<rect x="939" y="279.333" class="cabin fantastica-experience-balcony" width="20.25" height="53.417" data-id="12150"></rect>
	<rect x="918.25" y="279.333" class="cabin fantastica-experience-balcony" width="20.75" height="53.417" data-id="12154"></rect>
	<rect x="897.25" y="279.333" class="cabin fantastica-experience-balcony" width="21" height="53.417" data-id="12158"></rect>
	<rect x="875.75" y="279.333" class="cabin fantastica-experience-balcony" width="21.5" height="53.417" data-id="12162"></rect>
	<rect x="855" y="279.333" class="cabin fantastica-experience-balcony" width="20.75" height="53.417" data-id="12166"></rect>
	<rect x="834.5" y="279.333" class="cabin fantastica-experience-balcony" width="20.5" height="53.417" data-id="12170"></rect>
	<rect x="814" y="279.333" class="cabin fantastica-experience-balcony" width="20.5" height="53.417" data-id="12174"></rect>
	<rect x="793.5" y="279.333" class="cabin fantastica-experience-balcony" width="20.5" height="53.417" data-id="12178"></rect>
	<rect x="772" y="279.333" class="cabin fantastica-experience-balcony" width="21.5" height="53.417" data-id="12180"></rect>
	<rect x="751.5" y="279.333" class="cabin fantastica-experience-balcony" width="20.5" height="53.417" data-id="12182"></rect>
	<rect x="730.25" y="279.333" class="cabin fantastica-experience-balcony" width="21.25" height="53.417" data-id="12184"></rect>
	<rect x="710" y="279.333" class="cabin fantastica-experience-balcony" width="20.25" height="53.417" data-id="12186"></rect>
	<rect x="689.5" y="279.333" class="cabin fantastica-experience-balcony" width="20.5" height="53.417" data-id="12188"></rect>
	<rect x="648" y="279.333" class="cabin" width="20.75" height="53.417"></rect>
	<rect x="627.25" y="279.333" class="cabin fantastica-experience-balcony" width="20.75" height="53.417" data-id="12194"></rect>
	<polygon class="cabin auera-experience-grand-suite" points="564,306.75 585.75,332.75 585.75,228.75 564,228.75 	
		" data-id="12202"></polygon>
	<polygon class="cabin fantastica-experience-suite" points="543.5,282 564,307 564,228.75 543.5,228.75 	" data-id="12204"></polygon>
	<rect x="522.75" y="228.75" class="cabin fantastica-experience-balcony" width="20.75" height="53.25" data-id="12206"></rect>
	<rect x="502.25" y="228.75" class="cabin fantastica-experience-balcony" width="20.5" height="53.25" data-id="12208"></rect>
	<rect x="481.5" y="228.75" class="cabin fantastica-experience-balcony" width="20.75" height="53.25" data-id="12212"></rect>
	<rect x="460.75" y="228.75" class="cabin fantastica-experience-balcony" width="20.75" height="53.25" data-id="12216"></rect>
	<rect x="439.5" y="228.75" class="cabin fantastica-experience-balcony" width="21.25" height="53.25" data-id="12218"></rect>
	<rect x="419.25" y="228.75" class="cabin fantastica-experience-balcony" width="20.25" height="53.25" data-id="12220"></rect>
	<rect x="398.5" y="228.75" class="cabin fantastica-experience-balcony" width="20.75" height="53.25" data-id="12222"></rect>
	<rect x="377.5" y="228.75" class="cabin fantastica-experience-balcony" width="21" height="53.25" data-id="12226"></rect>
	<rect x="356.25" y="228.75" class="cabin fantastica-experience-balcony" width="21.25" height="53.25" data-id="12228"></rect>
	<rect x="298.25" y="228.75" class="cabin fantastica-experience-balcony" width="21.25" height="53.25" data-id="12234"></rect>
	<rect x="277.25" y="228.75" class="cabin fantastica-experience-balcony" width="21" height="53.25" data-id="12236"></rect>
	<rect x="256.75" y="228.75" class="cabin fantastica-experience-balcony" width="20.5" height="53.25" data-id="12238"></rect>
	<rect x="235.5" y="228.75" class="cabin fantastica-experience-balcony" width="21.25" height="53.25" data-id="12240"></rect>
	<rect x="214.5" y="228.75" class="cabin fantastica-experience-balcony" width="21" height="53.25" data-id="12242"></rect>
	<rect x="193.75" y="228.75" class="cabin fantastica-experience-balcony" width="20.75" height="53.25" data-id="12244"></rect>
	<rect x="172.5" y="228.75" class="cabin fantastica-experience-balcony" width="21.25" height="53.25" data-id="12246"></rect>
	<rect x="151.25" y="228.75" class="cabin fantastica-experience-balcony" width="21.25" height="53.25" data-id="12248"></rect>
	<rect x="131.25" y="228.75" class="cabin fantastica-experience-balcony" width="20" height="53.25" data-id="12250"></rect>
	<rect x="109.75" y="228.75" class="cabin fantastica-experience-balcony" width="21.5" height="53.25" data-id="12252"></rect>
	<rect x="89.25" y="228.75" class="cabin fantastica-experience-balcony" width="20.5" height="53.25" data-id="12254"></rect>
	<rect x="68.25" y="228.75" class="cabin fantastica-experience-balcony" width="21" height="53.25" data-id="12256"></rect>
	<rect x="46.75" y="228.75" class="cabin fantastica-experience-balcony" width="21.5" height="53.25" data-id="12258"></rect>
	<path class="cabin auera-experience-suite" d="M44.25,211.5c1.75,0,2.5,0,2.5,0V282c0,0-18.75,0-23.5,0
		s-7.75-1.124-7.75-7.125c0-6,0-3.749,0-29.75C15.5,219.125,37.5,211.5,44.25,211.5z" data-id="12260"></path>
	<rect x="1957.334" y="228.916" class="cabin fantastica-experience-balcony" width="20.54" height="52.834" data-id="12022"></rect>
	<rect x="1977.874" y="228.916" class="cabin fantastica-experience-balcony" width="20.75" height="52.834" data-id="12020"></rect>
	<rect x="1998.624" y="228.916" class="cabin fantastica-experience-balcony" width="20.626" height="52.834" data-id="12018"></rect>
	<rect x="2019.25" y="228.916" class="cabin fantastica-experience-balcony" width="21.25" height="52.834" data-id="12016"></rect>
	<rect x="2040.5" y="228.916" class="cabin fantastica-experience-balcony" width="20.5" height="52.834" data-id="12014"></rect>
	<rect x="2061" y="228.916" class="cabin bella-experience-balcony" width="20.25" height="52.834" data-id="12012"></rect>
	<rect x="2081.25" y="228.916" class="cabin bella-experience-balcony" width="21.25" height="52.834" data-id="12010"></rect>
	<rect x="2102.5" y="228.916" class="cabin bella-experience-balcony" width="21" height="52.834" data-id="12008"></rect>
	<rect x="2123.5" y="228.916" class="cabin bella-experience-balcony" width="20.5" height="52.834" data-id="12006"></rect>
	<rect x="2144" y="228.916" class="cabin bella-experience-balcony" width="20.75" height="52.834" data-id="12004"></rect>
	<path class="cabin wellness-balcony" d="M2211.5,214h-46.75v67.75h30.75
		C2205.25,263.625,2211.625,227.125,2211.5,214z" data-id="12002"></path>
	<rect x="1645.873" y="228.916" class="cabin fantastica-experience-balcony" width="19.962" height="52.834" data-id="12056"></rect>
	<rect x="606.5" y="279.333" class="cabin fantastica-experience-balcony" width="20.75" height="53.417" data-id="12196"></rect>
	<rect x="585.75" y="279.333" class="cabin fantastica-experience-balcony" width="20.75" height="53.417" data-id="12200"></rect>
	<rect x="340" y="228.75" class="cabin fantastica-experience-balcony" width="16.25" height="53.25" data-id="12230"></rect>
	<rect x="319.5" y="228.75" class="cabin fantastica-experience-balcony" width="20.5" height="53.25" data-id="12232"></rect>
	<rect x="1624.873" y="228.916" class="cabin fantastica-experience-balcony" width="21" height="52.834" data-id="12058"></rect>
	<rect x="648" y="279.333" class="cabin fantastica-experience-balcony" width="20.75" height="53.417" data-id="12192"></rect>
	<rect x="668.75" y="279.333" class="cabin fantastica-experience-balcony" width="20.75" height="53.417" data-id="12190"></rect>
	<rect x="2125.168" y="170.5" class="cabin auera-experience-suite-with-whirlpool-bath" width="86.334" height="39.167" data-id="12001"></rect>
	<rect x="1749.667" y="170.333" class="cabin fantastica-experience-inside" width="45.168" height="19.667" data-id="12047"></rect>
	<rect x="1749.667" y="190" class="cabin fantastica-experience-inside" width="45.168" height="19.167" data-id="12044"></rect>
	<rect x="1683.001" y="170.333" class="cabin fantastica-experience-inside" width="44.5" height="19.667" data-id="12051"></rect>
	<rect x="1683.001" y="190" class="cabin fantastica-experience-inside" width="44.5" height="19.167" data-id="12048"></rect>
	<rect x="1620.5" y="170.333" class="cabin fantastica-experience-inside" width="45.335" height="19.667" data-id="12063"></rect>
	<rect x="1620.5" y="190" class="cabin fantastica-experience-inside" width="45.335" height="19.167" data-id="12060"></rect>
	<rect x="1543.165" y="122" class="cabin fantastica-experience-inside" width="31.333" height="44.333" data-id="12071"></rect>
	<rect x="1553.165" y="213.5" class="cabin fantastica-experience-inside" width="21.333" height="45" data-id="12068"></rect>
	<rect x="1375.25" y="121.833" class="cabin fantastica-experience-inside" width="30.248" height="45" data-id="12089"></rect>
	<rect x="1354.831" y="121.833" class="cabin fantastica-experience-inside" width="20.419" height="45" data-id="12093"></rect>
	<rect x="1334.165" y="121.833" class="cabin fantastica-experience-inside" width="20.666" height="45" data-id="12097"></rect>
	<rect x="1375.25" y="213.666" class="cabin fantastica-experience-inside" width="30.248" height="44" data-id="12086"></rect>
	<rect x="1354.831" y="213.666" class="cabin fantastica-experience-inside" width="20.419" height="44" data-id="12090"></rect>
	<rect x="1334.165" y="213.666" class="cabin fantastica-experience-inside" width="20.666" height="44" data-id="12094"></rect>
	<rect x="1313" y="213.666" class="cabin fantastica-experience-inside" width="21.165" height="44" data-id="12098"></rect>
	<rect x="1292.75" y="213.666" class="cabin fantastica-experience-inside" width="20.25" height="44" data-id="12102"></rect>
	<rect x="1271.5" y="213.666" class="cabin fantastica-experience-inside" width="21.25" height="44" data-id="12106"></rect>
	<rect x="1250.5" y="213.666" class="cabin fantastica-experience-inside" width="21" height="44" data-id="12110"></rect>
	<rect x="1230.5" y="213.666" class="cabin fantastica-experience-inside" width="20" height="44" data-id="12114"></rect>
	<rect x="1209.5" y="213.666" class="cabin fantastica-experience-inside" width="21" height="44" data-id="12118"></rect>
	<rect x="1180.5" y="213.666" class="cabin fantastica-experience-inside" width="29" height="44" data-id="12122"></rect>
	<rect x="1292.75" y="121.833" class="cabin fantastica-experience-inside" width="20.25" height="45" data-id="12103"></rect>
	<rect x="1271.5" y="121.833" class="cabin fantastica-experience-inside" width="21.25" height="45" data-id="12107"></rect>
	<rect x="1250.5" y="121.833" class="cabin fantastica-experience-inside" width="21" height="45" data-id="12111"></rect>
	<rect x="1230.5" y="121.833" class="cabin fantastica-experience-inside" width="20" height="45" data-id="12115"></rect>
	<rect x="1209.5" y="121.833" class="cabin fantastica-experience-inside" width="21" height="45" data-id="12121"></rect>
	<rect x="1188.25" y="121.833" class="cabin fantastica-experience-inside" width="21.25" height="45" data-id="12125"></rect>
	<rect x="1167" y="121.833" class="cabin fantastica-experience-inside" width="21.25" height="45" data-id="12129"></rect>
	<rect x="1146.5" y="121.833" class="cabin fantastica-experience-inside" width="20.5" height="45" data-id="12133"></rect>
	<rect x="1127" y="121.833" class="cabin fantastica-experience-inside" width="19.5" height="45" data-id="12137"></rect>
	<rect x="939" y="213.5" class="cabin fantastica-experience-inside" width="20.25" height="43.834" data-id="12148"></rect>
	<rect x="918.25" y="213.5" class="cabin fantastica-experience-inside" width="20.75" height="43.834" data-id="12152"></rect>
	<rect x="897.25" y="213.5" class="cabin fantastica-experience-inside" width="21" height="43.834" data-id="12156"></rect>
	<rect x="876.5" y="213.5" class="cabin fantastica-experience-inside" width="20.75" height="43.834" data-id="12160"></rect>
	<rect x="855" y="213.5" class="cabin fantastica-experience-inside" width="21.5" height="43.834" data-id="12164"></rect>
	<rect x="834.5" y="213.5" class="cabin fantastica-experience-inside" width="20.5" height="43.834" data-id="12168"></rect>
	<rect x="814" y="213.5" class="cabin fantastica-experience-inside" width="20.5" height="43.834" data-id="12172"></rect>
	<rect x="793.5" y="213.5" class="cabin fantastica-experience-inside" width="20.5" height="43.834" data-id="12176"></rect>
	<rect x="876.5" y="122.001" class="cabin fantastica-experience-inside" width="33.833" height="44.5" data-id="12163"></rect>
	<rect x="855" y="122.001" class="cabin fantastica-experience-inside" width="21.5" height="44.5" data-id="12167"></rect>
	<rect x="835.166" y="122.001" class="cabin fantastica-experience-inside" width="19.834" height="44.5" data-id="12171"></rect>
	<rect x="814" y="122.001" class="cabin fantastica-experience-inside" width="21.166" height="44.5" data-id="12175"></rect>
	<rect x="793.5" y="122.001" class="cabin fantastica-experience-inside" width="20.5" height="44.5" data-id="12179"></rect>
	<rect x="772.666" y="122.001" class="cabin fantastica-experience-inside" width="20.834" height="44.5" data-id="12183"></rect>
	<rect x="596.833" y="122.167" class="cabin fantastica-experience-inside" width="30.417" height="44.167" data-id="12203"></rect>
	<rect x="596.833" y="213.667" class="cabin fantastica-experience-inside" width="20.833" height="44.666" data-id="12198"></rect>
	<rect x="507.333" y="170.333" class="cabin fantastica-experience-inside" width="44.333" height="19.667" data-id="12213"></rect>
	<rect x="507.333" y="190" class="cabin fantastica-experience-inside" width="44.333" height="19.667" data-id="12210"></rect>
	<rect x="440.166" y="170.333" class="cabin fantastica-experience-inside" width="46" height="19.667" data-id="12221"></rect>
	<rect x="440.166" y="190" class="cabin fantastica-experience-inside" width="46" height="19.667" data-id="12214"></rect>
	<rect x="395.666" y="190" class="cabin fantastica-experience-inside" width="44.5" height="19.667" data-id="12224"></rect>
	<rect x="395.666" y="170.333" class="cabin fantastica-experience-inside" width="44.5" height="19.667" data-id="12231"></rect>
</g>
</svg>
