<svg id="floor-11" viewBox="0 0 2240 380">
<g>
	<path class="floor-base" d="M2235,190.334
		c0,40.209-12.25,105.334-30.75,105.334s-592,0-592,0L1572,345.335H572.667l-39.333-49.917c0,0-499.958,0-510.833,0
		s-16.188-7.125-16.188-13.5s0-22.5,0-28.312s3.812-8.562,8.562-8.562c0-21.125,18-32.625,31.875-32.625v-1.125l-6.375-3.5v-34.918
		l6.375-3.5v-1.125c-13.875,0-31.875-11.5-31.875-32.625c-4.75,0-8.562-2.75-8.562-8.562s0-21.938,0-28.312s5.312-13.5,16.188-13.5
		s510.833,0,510.833,0l39.333-49.917H1572L1612.25,85c0,0,573.5,0,592,0S2235,150.125,2235,190.334z"></path>
	<rect x="1934.501" y="99.5" class="cabin bella-experience-balcony" width="21.833" height="51.833" data-id="11033"></rect>
	<rect x="1913.834" y="99.5" class="cabin fantastica-experience-balcony" width="20.667" height="51.833" data-id="11035"></rect>
	<rect x="1893.501" y="99.5" class="cabin fantastica-experience-balcony" width="20.333" height="51.833" data-id="11037"></rect>
	<rect x="1874.334" y="99.5" class="cabin fantastica-experience-balcony" width="19.167" height="51.833" data-id="11039"></rect>
	<rect x="1853.501" y="99.5" class="cabin fantastica-experience-balcony" width="20.833" height="51.833" data-id="11041"></rect>
	<rect x="1832.667" y="99.5" class="cabin fantastica-experience-balcony" width="20.834" height="51.833" data-id="11043"></rect>
	<rect x="1812.334" y="99.5" class="cabin fantastica-experience-balcony" width="20.333" height="51.833" data-id="11045"></rect>
	<rect x="1791.5" y="99.5" class="cabin fantastica-experience-balcony" width="20.834" height="51.833" data-id="11047"></rect>
	<rect x="1771" y="99.5" class="cabin fantastica-experience-balcony" width="20.5" height="51.833" data-id="11049"></rect>
	<rect x="1749.667" y="99.5" class="cabin fantastica-experience-balcony" width="21.333" height="51.833" data-id="11051"></rect>
	<rect x="1729.502" y="99.5" class="cabin fantastica-experience-balcony" width="20.165" height="51.833" data-id="11053"></rect>
	<rect x="1709.335" y="99.5" class="cabin fantastica-experience-balcony" width="20.167" height="51.833" data-id="11057"></rect>
	<rect x="1687.835" y="99.5" class="cabin fantastica-experience-balcony" width="21.5" height="51.833" data-id="11059"></rect>
	<rect x="1667.835" y="99.5" class="cabin fantastica-experience-balcony" width="20" height="51.833" data-id="11061"></rect>
	<polygon class="cabin fantastica-experience-suite" points="1586.039,74.5 1605.873,99.5 1605.873,151.334 
		1586.039,151.334 	" data-id="11073"></polygon>
	<polygon class="cabin auera-experience-grand-suite" points="1565.372,48.5 1586.039,74.5 1586.039,151.334 
		1565.372,151.334 	" data-id="11075"></polygon>
	<rect x="1605.873" y="99.5" class="cabin fantastica-experience-balcony" width="22" height="51.833" data-id="11071"></rect>
	<rect x="1544.5" y="48.5" class="cabin fantastica-experience-balcony" width="20.75" height="53.417" data-id="11077"></rect>
	<rect x="1524" y="48.5" class="cabin fantastica-experience-balcony" width="20.5" height="53.417" data-id="11081"></rect>
	<rect x="1503.75" y="48.5" class="cabin fantastica-experience-balcony" width="20.25" height="53.417" data-id="11083"></rect>
	<rect x="1483.75" y="48.5" class="cabin fantastica-experience-balcony" width="20" height="53.417" data-id="11085"></rect>
	<rect x="1462.5" y="48.5" class="cabin fantastica-experience-balcony" width="21.25" height="53.417" data-id="11087"></rect>
	<rect x="1442.25" y="48.5" class="cabin fantastica-experience-balcony" width="20.25" height="53.417" data-id="11089"></rect>
	<rect x="1421.25" y="48.5" class="cabin fantastica-experience-balcony" width="21" height="53.417" data-id="11091"></rect>
	<rect x="1401" y="48.5" class="cabin fantastica-experience-balcony" width="20.25" height="53.417" data-id="11093"></rect>
	<rect x="1380.25" y="48.5" class="cabin fantastica-experience-balcony" width="20.75" height="53.417" data-id="11095"></rect>
	<rect x="1359.25" y="48.5" class="cabin fantastica-experience-balcony" width="21" height="53.417" data-id="11099"></rect>
	<rect x="1339.5" y="48.5" class="cabin fantastica-experience-balcony" width="19.75" height="53.417" data-id="11103"></rect>
	<rect x="1319" y="48.5" class="cabin fantastica-experience-balcony" width="20.5" height="53.417" data-id="11107"></rect>
	<rect x="1298.75" y="48.5" class="cabin fantastica-experience-balcony" width="20.25" height="53.417" data-id="11111"></rect>
	<rect x="1278.5" y="48.5" class="cabin fantastica-experience-balcony" width="20.25" height="53.417" data-id="11115"></rect>
	<rect x="1257.5" y="48.5" class="cabin fantastica-experience-balcony" width="21" height="53.417" data-id="11121"></rect>
	<rect x="1237.5" y="48.5" class="cabin fantastica-experience-balcony" width="20" height="53.417" data-id="11123"></rect>
	<rect x="1217.5" y="48.5" class="cabin fantastica-experience-balcony" width="20" height="53.417" data-id="11127"></rect>
	<rect x="1196.25" y="48.5" class="cabin fantastica-experience-balcony" width="21.25" height="53.417" data-id="11131"></rect>
	<rect x="1175" y="48.5" class="cabin fantastica-experience-balcony" width="21.25" height="53.417" data-id="11135"></rect>
	<rect x="1154.5" y="48.5" class="cabin fantastica-experience-balcony" width="20.5" height="53.417" data-id="11139"></rect>
	<rect x="1133.833" y="48.5" class="cabin fantastica-experience-balcony" width="20.667" height="53.417" data-id="11143"></rect>
	<rect x="1113.5" y="48.5" class="cabin fantastica-experience-balcony" width="20.333" height="53.417" data-id="11147"></rect>
	<rect x="1093.5" y="48.5" class="cabin fantastica-experience-balcony" width="20" height="53.417" data-id="11149"></rect>
	<rect x="1072.75" y="48.5" class="cabin fantastica-experience-balcony" width="20.75" height="53.417" data-id="11151"></rect>
	<rect x="1052.25" y="48.5" class="cabin fantastica-experience-balcony" width="20.5" height="53.417" data-id="11153"></rect>
	<rect x="1032" y="48.5" class="cabin fantastica-experience-balcony" width="20.25" height="53.417" data-id="11155"></rect>
	<rect x="1012" y="48.5" class="cabin fantastica-experience-balcony" width="20" height="53.417" data-id="11157"></rect>
	<rect x="990.25" y="48.5" class="cabin fantastica-experience-balcony" width="21.75" height="53.417" data-id="11159"></rect>
	<rect x="970.25" y="48.5" class="cabin fantastica-experience-balcony" width="20" height="53.417" data-id="11161"></rect>
	<rect x="950" y="48.5" class="cabin fantastica-experience-balcony" width="20.25" height="53.417" data-id="11163"></rect>
	<rect x="929.25" y="48.5" class="cabin fantastica-experience-balcony" width="20.75" height="53.417" data-id="11165"></rect>
	<rect x="908.25" y="48.5" class="cabin fantastica-experience-balcony" width="21" height="53.417" data-id="11167"></rect>
	<rect x="887.75" y="48.5" class="cabin fantastica-experience-balcony" width="20.5" height="53.417" data-id="11169"></rect>
	<rect x="867" y="48.5" class="cabin fantastica-experience-balcony" width="20.75" height="53.417" data-id="11173"></rect>
	<rect x="846.5" y="48.5" class="cabin fantastica-experience-balcony" width="20.5" height="53.417" data-id="11177"></rect>
	<rect x="826" y="48.5" class="cabin fantastica-experience-balcony" width="20.5" height="53.417" data-id="11181"></rect>
	<rect x="805.5" y="48.5" class="cabin fantastica-experience-balcony" width="20.5" height="53.417" data-id="11185"></rect>
	<rect x="785" y="48.5" class="cabin fantastica-experience-balcony" width="20.5" height="53.417" data-id="11189"></rect>
	<rect x="764.5" y="48.5" class="cabin fantastica-experience-balcony" width="20.5" height="53.417" data-id="11193"></rect>
	<rect x="744.25" y="48.5" class="cabin fantastica-experience-balcony" width="20.25" height="53.417" data-id="11195"></rect>
	<rect x="724" y="48.5" class="cabin fantastica-experience-balcony" width="20.25" height="53.417" data-id="11197"></rect>
	<rect x="703.5" y="48.5" class="cabin fantastica-experience-balcony" width="20.5" height="53.417" data-id="11199"></rect>
	<rect x="662" y="48.5" class="cabin" width="20.75" height="53.417"></rect>
	<rect x="641.25" y="48.5" class="cabin fantastica-experience-balcony" width="20.75" height="53.417" data-id="11205"></rect>
	<polygon class="cabin auera-experience-grand-suite" points="559,74.5 580.75,48.5 580.75,151.5 559,151.5 	" data-id="11215"></polygon>
	<polygon class="cabin fantastica-experience-suite" points="538.5,99.25 559,74.25 559,151.5 538.5,151.5 	" data-id="11219"></polygon>
	<rect x="518.75" y="99.25" class="cabin fantastica-experience-balcony" width="19.75" height="52.25" data-id="11221"></rect>
	<rect x="498.25" y="99.25" class="cabin fantastica-experience-balcony" width="20.5" height="52.25" data-id="11223"></rect>
	<rect x="477.5" y="99.25" class="cabin fantastica-experience-balcony" width="20.75" height="52.25" data-id="11225"></rect>
	<rect x="456.75" y="99.25" class="cabin fantastica-experience-balcony" width="20.75" height="52.25" data-id="11227"></rect>
	<rect x="435.5" y="99.25" class="cabin fantastica-experience-balcony" width="21.25" height="52.25" data-id="11229"></rect>
	<rect x="416.25" y="99.25" class="cabin fantastica-experience-balcony" width="19.25" height="52.25" data-id="11233"></rect>
	<rect x="396.5" y="99.25" class="cabin fantastica-experience-balcony" width="19.75" height="52.25" data-id="11237"></rect>
	<rect x="375.5" y="99.25" class="cabin fantastica-experience-balcony" width="21" height="52.25" data-id="11239"></rect>
	<rect x="354.25" y="99.25" class="cabin fantastica-experience-balcony" width="21.25" height="52.25" data-id="11241"></rect>
	<rect x="292.25" y="99.25" class="cabin fantastica-experience-balcony" width="21.25" height="52.25" data-id="11247"></rect>
	<rect x="271.25" y="99.25" class="cabin fantastica-experience-balcony" width="21" height="52.25" data-id="11249"></rect>
	<rect x="250.75" y="99.25" class="cabin fantastica-experience-balcony" width="20.5" height="52.25" data-id="11251"></rect>
	<rect x="231.5" y="99.25" class="cabin fantastica-experience-balcony" width="19.25" height="52.25" data-id="11253"></rect>
	<rect x="210.5" y="99.25" class="cabin fantastica-experience-balcony" width="21" height="52.25" data-id="11255"></rect>
	<rect x="190.75" y="99.25" class="cabin fantastica-experience-balcony" width="19.75" height="52.25" data-id="11257"></rect>
	<rect x="170.5" y="99.25" class="cabin fantastica-experience-balcony" width="20.25" height="52.25" data-id="11259"></rect>
	<rect x="149.25" y="99.25" class="cabin fantastica-experience-balcony" width="21.25" height="52.25" data-id="11261"></rect>
	<rect x="129.25" y="99.25" class="cabin fantastica-experience-balcony" width="20" height="52.25" data-id="11263"></rect>
	<rect x="108.75" y="99.25" class="cabin bella-experience-balcony" width="20.5" height="52.25" data-id="11265"></rect>
	<rect x="88.25" y="99.25" class="cabin bella-experience-balcony" width="20.5" height="52.25" data-id="11267"></rect>
	<rect x="68.25" y="99.25" class="cabin bella-experience-balcony" width="20" height="52.25" data-id="11269"></rect>
	<rect x="46.75" y="99.25" class="cabin bella-experience-balcony" width="21.5" height="52.25" data-id="11271"></rect>
	<path class="cabin auera-experience-suite" d="M44.25,167.75c1.75,0,2.5,0,2.5,0v-68.5c0,0-18.75,0-23.5,0
		s-7.75,1.124-7.75,7.125s0,0.75,0,26.75S37.5,167.75,44.25,167.75z" data-id="11273"></path>
	<rect x="1956.334" y="99.5" class="cabin bella-experience-balcony" width="19.54" height="51.833" data-id="11031"></rect>
	<rect x="1975.874" y="99.5" class="cabin bella-experience-balcony" width="20.75" height="51.833" data-id="11029"></rect>
	<rect x="1996.624" y="99.5" class="cabin bella-experience-balcony" width="19.626" height="51.833" data-id="11027"></rect>
	<rect x="2016.25" y="99.5" class="cabin bella-experience-balcony" width="21.25" height="51.833" data-id="11023"></rect>
	<rect x="2037.5" y="99.5" class="cabin bella-experience-balcony" width="19.5" height="51.833" data-id="11019"></rect>
	<rect x="2057" y="99.5" class="cabin bella-experience-balcony" width="21.25" height="51.833" data-id="11015"></rect>
	<rect x="2078.25" y="99.5" class="cabin bella-experience-balcony" width="20.25" height="51.833" data-id="11013"></rect>
	<rect x="2098.5" y="99.5" class="cabin bella-experience-balcony" width="21" height="51.833" data-id="11011"></rect>
	<rect x="2119.5" y="99.5" class="cabin bella-experience-balcony" width="20.5" height="51.833" data-id="11007"></rect>
	<rect x="2140" y="99.5" class="cabin bella-experience-balcony" width="20.75" height="51.833" data-id="11005"></rect>
	<path class="cabin auera-experience-suite-with-whirlpool-bath" d="M2211.5,166.25h-50.75V99.5h34.75
		C2205.25,117.625,2211.625,153.125,2211.5,166.25z" data-id="11003"></path>
	<rect x="1647.873" y="99.5" class="cabin fantastica-experience-balcony" width="19.962" height="51.833" data-id="11065"></rect>
	<rect x="620.5" y="48.5" class="cabin fantastica-experience-balcony" width="20.75" height="53.417" data-id="11207"></rect>
	<rect x="580.75" y="48.5" class="cabin fantastica-experience-balcony" width="20" height="53.417" data-id="11213"></rect>
	<rect x="334" y="99.25" class="cabin fantastica-experience-balcony" width="20.25" height="52.25" data-id="11243"></rect>
	<rect x="313.5" y="99.25" class="cabin fantastica-experience-balcony" width="20.5" height="52.25" data-id="11245"></rect>
	<rect x="1627.873" y="99.5" class="cabin fantastica-experience-balcony" width="20" height="51.833" data-id="11067"></rect>
	<rect x="662" y="48.5" class="cabin fantastica-experience-balcony" width="20.75" height="53.417" data-id="11203"></rect>
	<rect x="682.75" y="48.5" class="cabin fantastica-experience-balcony" width="20.75" height="53.417" data-id="11201"></rect>
	<rect x="600.75" y="48.5" class="cabin fantastica-experience-balcony" width="19.75" height="53.417" data-id="11209"></rect>
	<rect x="1934.501" y="228.787" class="cabin bella-experience-balcony" width="21.833" height="52.834" data-id="11028"></rect>
	<rect x="1913.834" y="228.787" class="cabin fantastica-experience-balcony" width="20.667" height="52.834" data-id="11030"></rect>
	<rect x="1893.501" y="228.787" class="cabin fantastica-experience-balcony" width="20.333" height="52.834" data-id="11032"></rect>
	<rect x="1874.334" y="228.787" class="cabin fantastica-experience-balcony" width="19.167" height="52.834" data-id="11034"></rect>
	<rect x="1853.501" y="228.787" class="cabin fantastica-experience-balcony" width="20.833" height="52.834" data-id="11036"></rect>
	<rect x="1832.667" y="228.787" class="cabin fantastica-experience-balcony" width="20.834" height="52.834" data-id="11038"></rect>
	<rect x="1812.334" y="228.787" class="cabin fantastica-experience-balcony" width="20.333" height="52.834" data-id="11040"></rect>
	<rect x="1791.5" y="228.787" class="cabin fantastica-experience-balcony" width="20.834" height="52.834" data-id="11042"></rect>
	<rect x="1771" y="228.787" class="cabin fantastica-experience-balcony" width="20.5" height="52.834" data-id="11044"></rect>
	<rect x="1749.667" y="228.787" class="cabin fantastica-experience-balcony" width="21.333" height="52.834" data-id="11046"></rect>
	<rect x="1729.502" y="228.787" class="cabin fantastica-experience-balcony" width="20.165" height="52.834" data-id="11050"></rect>
	<rect x="1709.335" y="228.787" class="cabin fantastica-experience-balcony" width="20.167" height="52.834" data-id="11052"></rect>
	<rect x="1687.835" y="228.787" class="cabin fantastica-experience-balcony" width="21.5" height="52.834" data-id="11054"></rect>
	<rect x="1667.835" y="228.787" class="cabin fantastica-experience-balcony" width="20" height="52.834" data-id="11056"></rect>
	<polygon class="cabin fantastica-experience-suite" points="1586.039,306.621 1605.873,281.621 1605.873,228.787 
		1586.039,228.787 	" data-id="11068"></polygon>
	<polygon class="cabin auera-experience-grand-suite" points="1565.372,331.621 1586.039,306.621 1586.039,228.787 
		1565.372,228.787 	" data-id="11070"></polygon>
	<rect x="1605.873" y="228.787" class="cabin fantastica-experience-balcony" width="22" height="52.834" data-id="11066"></rect>
	<rect x="1544.5" y="277.204" class="cabin fantastica-experience-balcony" width="20.75" height="54.417" data-id="11072"></rect>
	<rect x="1524" y="277.204" class="cabin fantastica-experience-balcony" width="20.5" height="54.417" data-id="11076"></rect>
	<rect x="1503.75" y="277.204" class="cabin fantastica-experience-balcony" width="20.25" height="54.417" data-id="11078"></rect>
	<rect x="1483.75" y="277.204" class="cabin fantastica-experience-balcony" width="20" height="54.417" data-id="11080"></rect>
	<rect x="1462.5" y="277.204" class="cabin fantastica-experience-balcony" width="21.25" height="54.417" data-id="11082"></rect>
	<rect x="1442.25" y="277.204" class="cabin fantastica-experience-balcony" width="20.25" height="54.417" data-id="11084"></rect>
	<rect x="1421.25" y="277.204" class="cabin fantastica-experience-balcony" width="21" height="54.417" data-id="11086"></rect>
	<rect x="1401" y="277.204" class="cabin fantastica-experience-balcony" width="20.25" height="54.417" data-id="11088"></rect>
	<rect x="1380.25" y="277.204" class="cabin fantastica-experience-balcony" width="20.75" height="54.417" data-id="11090"></rect>
	<rect x="1359.25" y="277.204" class="cabin fantastica-experience-balcony" width="21" height="54.417" data-id="11094"></rect>
	<rect x="1339.5" y="277.204" class="cabin fantastica-experience-balcony" width="19.75" height="54.417" data-id="11098"></rect>
	<rect x="1319" y="277.204" class="cabin fantastica-experience-balcony" width="20.5" height="54.417" data-id="11102"></rect>
	<rect x="1298.75" y="277.204" class="cabin fantastica-experience-balcony" width="20.25" height="54.417" data-id="11106"></rect>
	<rect x="1278.5" y="277.204" class="cabin fantastica-experience-balcony" width="20.25" height="54.417" data-id="11110"></rect>
	<rect x="1257.5" y="277.204" class="cabin fantastica-experience-balcony" width="21" height="54.417" data-id="11114"></rect>
	<rect x="1237.5" y="277.204" class="cabin fantastica-experience-balcony" width="20" height="54.417" data-id="11118"></rect>
	<rect x="1217.5" y="277.204" class="cabin fantastica-experience-balcony" width="20" height="54.417" data-id="11122"></rect>
	<rect x="1196.25" y="277.204" class="cabin fantastica-experience-balcony" width="21.25" height="54.417" data-id="11126"></rect>
	<rect x="1175" y="277.204" class="cabin fantastica-experience-balcony" width="21.25" height="54.417" data-id="11130"></rect>
	<rect x="1154.5" y="277.204" class="cabin fantastica-experience-balcony" width="20.5" height="54.417" data-id="11132"></rect>
	<rect x="1133.833" y="277.204" class="cabin fantastica-experience-balcony" width="20.667" height="54.417" data-id="11134"></rect>
	<rect x="1113.5" y="277.204" class="cabin fantastica-experience-balcony" width="20.333" height="54.417" data-id="11136"></rect>
	<rect x="1093.5" y="277.204" class="cabin fantastica-experience-balcony" width="20" height="54.417" data-id="11138"></rect>
	<rect x="1072.75" y="277.204" class="cabin fantastica-experience-balcony" width="20.75" height="54.417" data-id="11140"></rect>
	<rect x="1052.25" y="277.204" class="cabin fantastica-experience-balcony" width="20.5" height="54.417" data-id="11142"></rect>
	<rect x="1032" y="277.204" class="cabin fantastica-experience-balcony" width="20.25" height="54.417" data-id="11144"></rect>
	<rect x="1012" y="277.204" class="cabin fantastica-experience-balcony" width="20" height="54.417" data-id="11146"></rect>
	<rect x="990.25" y="277.204" class="cabin fantastica-experience-balcony" width="21.75" height="54.417" data-id="11148"></rect>
	<rect x="970.25" y="277.204" class="cabin fantastica-experience-balcony" width="20" height="54.417" data-id="11150"></rect>
	<rect x="950" y="277.204" class="cabin fantastica-experience-balcony" width="20.25" height="54.417" data-id="11152"></rect>
	<rect x="929.25" y="277.204" class="cabin fantastica-experience-balcony" width="20.75" height="54.417" data-id="11156"></rect>
	<rect x="908.25" y="277.204" class="cabin fantastica-experience-balcony" width="21" height="54.417" data-id="11160"></rect>
	<rect x="887.75" y="277.204" class="cabin fantastica-experience-balcony" width="20.5" height="54.417" data-id="11164"></rect>
	<rect x="867" y="277.204" class="cabin fantastica-experience-balcony" width="20.75" height="54.417" data-id="11168"></rect>
	<rect x="846.5" y="277.204" class="cabin fantastica-experience-balcony" width="20.5" height="54.417" data-id="11172"></rect>
	<rect x="826" y="277.204" class="cabin fantastica-experience-balcony" width="20.5" height="54.417" data-id="11176"></rect>
	<rect x="805.5" y="277.204" class="cabin fantastica-experience-balcony" width="20.5" height="54.417" data-id="11180"></rect>
	<rect x="785" y="277.204" class="cabin fantastica-experience-balcony" width="20.5" height="54.417" data-id="11184"></rect>
	<rect x="764.5" y="277.204" class="cabin fantastica-experience-balcony" width="20.5" height="54.417" data-id="11186"></rect>
	<rect x="744.25" y="277.204" class="cabin fantastica-experience-balcony" width="20.25" height="54.417" data-id="11188"></rect>
	<rect x="724" y="277.204" class="cabin fantastica-experience-balcony" width="20.25" height="54.417" data-id="11190"></rect>
	<rect x="703.5" y="277.204" class="cabin fantastica-experience-balcony" width="20.5" height="54.417" data-id="11192"></rect>
	<rect x="662" y="277.204" class="cabin" width="20.75" height="54.417"></rect>
	<rect x="641.25" y="277.204" class="cabin fantastica-experience-balcony" width="20.75" height="54.417" data-id="11198"></rect>
	<polygon class="cabin auera-experience-grand-suite" points="559,305.621 580.75,331.621 580.75,228.621 
		559,228.621 	" data-id="11208"></polygon>
	<polygon class="cabin fantastica-experience-suite" points="538.5,280.871 559,305.871 559,228.621 538.5,228.621 
			" data-id="11210"></polygon>
	<rect x="518.75" y="228.621" class="cabin fantastica-experience-balcony" width="19.75" height="52.25" data-id="11212"></rect>
	<rect x="498.25" y="228.621" class="cabin fantastica-experience-balcony" width="20.5" height="52.25" data-id="11214"></rect>
	<rect x="477.5" y="228.621" class="cabin fantastica-experience-balcony" width="20.75" height="52.25" data-id="11216"></rect>
	<rect x="456.75" y="228.621" class="cabin fantastica-experience-balcony" width="20.75" height="52.25" data-id="11218"></rect>
	<rect x="435.5" y="228.621" class="cabin fantastica-experience-balcony" width="21.25" height="52.25" data-id="11222"></rect>
	<rect x="416.25" y="228.621" class="cabin fantastica-experience-balcony" width="19.25" height="52.25" data-id="11224"></rect>
	<rect x="396.5" y="228.621" class="cabin fantastica-experience-balcony" width="19.75" height="52.25" data-id="11228"></rect>
	<rect x="375.5" y="228.621" class="cabin fantastica-experience-balcony" width="21" height="52.25" data-id="11230"></rect>
	<rect x="354.25" y="228.621" class="cabin fantastica-experience-balcony" width="21.25" height="52.25" data-id="11232"></rect>
	<rect x="292.25" y="228.621" class="cabin fantastica-experience-balcony" width="21.25" height="52.25" data-id="11238"></rect>
	<rect x="271.25" y="228.621" class="cabin fantastica-experience-balcony" width="21" height="52.25" data-id="11240"></rect>
	<rect x="250.75" y="228.621" class="cabin fantastica-experience-balcony" width="20.5" height="52.25" data-id="11242"></rect>
	<rect x="231.5" y="228.621" class="cabin fantastica-experience-balcony" width="19.25" height="52.25" data-id="11244"></rect>
	<rect x="210.5" y="228.621" class="cabin fantastica-experience-balcony" width="21" height="52.25" data-id="11246"></rect>
	<rect x="190.75" y="228.621" class="cabin fantastica-experience-balcony" width="19.75" height="52.25" data-id="11248"></rect>
	<rect x="170.5" y="228.621" class="cabin fantastica-experience-balcony" width="20.25" height="52.25" data-id="11250"></rect>
	<rect x="149.25" y="228.621" class="cabin fantastica-experience-balcony" width="21.25" height="52.25" data-id="11252"></rect>
	<rect x="129.25" y="228.621" class="cabin fantastica-experience-balcony" width="20" height="52.25" data-id="11254"></rect>
	<rect x="108.75" y="228.621" class="cabin bella-experience-balcony" width="20.5" height="52.25" data-id="11256"></rect>
	<rect x="88.25" y="228.621" class="cabin bella-experience-balcony" width="20.5" height="52.25" data-id="11258"></rect>
	<rect x="68.25" y="228.621" class="cabin bella-experience-balcony" width="20" height="52.25" data-id="11260"></rect>
	<rect x="46.75" y="228.621" class="cabin bella-experience-balcony" width="21.5" height="52.25" data-id="11262"></rect>
	<path class="cabin auera-experience-suite" d="M44.25,212.371c1.75,0,2.5,0,2.5,0v68.5c0,0-18.75,0-23.5,0
		s-7.75-1.124-7.75-7.125c0-6,0-0.749,0-26.75C15.5,220.996,37.5,212.371,44.25,212.371z" data-id="11264"></path>
	<rect x="1956.334" y="228.787" class="cabin bella-experience-balcony" width="19.54" height="52.834" data-id="11026"></rect>
	<rect x="1975.874" y="228.787" class="cabin bella-experience-balcony" width="20.75" height="52.834" data-id="11024"></rect>
	<rect x="1996.624" y="228.787" class="cabin bella-experience-balcony" width="19.626" height="52.834" data-id="11022"></rect>
	<rect x="2016.25" y="228.787" class="cabin bella-experience-balcony" width="21.25" height="52.834" data-id="11018"></rect>
	<rect x="2037.5" y="228.787" class="cabin bella-experience-balcony" width="19.5" height="52.834" data-id="11014"></rect>
	<rect x="2057" y="228.787" class="cabin bella-experience-balcony" width="21.25" height="52.834" data-id="11012"></rect>
	<rect x="2078.25" y="228.787" class="cabin bella-experience-balcony" width="20.25" height="52.834" data-id="11010"></rect>
	<rect x="2098.5" y="228.787" class="cabin bella-experience-balcony" width="21" height="52.834" data-id="11008"></rect>
	<rect x="2119.5" y="228.787" class="cabin bella-experience-balcony" width="20.5" height="52.834" data-id="11006"></rect>
	<rect x="2140" y="228.787" class="cabin bella-experience-balcony" width="20.75" height="52.834" data-id="11004"></rect>
	<path class="cabin auera-experience-suite-with-whirlpool-bath" d="M2211.5,213.871h-50.75v67.75h34.75
		C2205.25,263.496,2211.625,226.996,2211.5,213.871z" data-id="11002"></path>
	<rect x="1647.873" y="228.787" class="cabin fantastica-experience-balcony" width="19.962" height="52.834" data-id="11060"></rect>
	<rect x="620.5" y="277.204" class="cabin fantastica-experience-balcony" width="20.75" height="54.417" data-id="11200"></rect>
	<rect x="580.75" y="277.204" class="cabin fantastica-experience-balcony" width="20" height="54.417" data-id="11206"></rect>
	<rect x="334" y="228.621" class="cabin fantastica-experience-balcony" width="20.25" height="52.25" data-id="11234"></rect>
	<rect x="313.5" y="228.621" class="cabin fantastica-experience-balcony" width="20.5" height="52.25" data-id="11236"></rect>
	<rect x="1627.873" y="228.787" class="cabin fantastica-experience-balcony" width="20" height="52.834" data-id="11062"></rect>
	<rect x="662" y="277.204" class="cabin fantastica-experience-balcony" width="20.75" height="54.417" data-id="11196"></rect>
	<rect x="682.75" y="277.204" class="cabin fantastica-experience-balcony" width="20.75" height="54.417" data-id="11194"></rect>
	<rect x="600.75" y="277.204" class="cabin fantastica-experience-balcony" width="19.75" height="54.417" data-id="11202"></rect>
	<rect x="2126.25" y="169.75" class="cabin auera-experience-suite-with-whirlpool-bath" width="85.252" height="40" data-id="11001"></rect>
	<rect x="2089.668" y="169.75" class="cabin bella-experience-inside" width="22.5" height="40" data-id="11009"></rect>
	<rect x="2037.5" y="169.75" class="cabin bella-experience-inside" width="44.834" height="20.25" data-id="11021"></rect>
	<rect x="2037.5" y="190" class="cabin bella-experience-inside" width="44.834" height="19.75" data-id="11016"></rect>
	<rect x="1972.167" y="169.75" class="cabin bella-experience-inside" width="44.834" height="20.25" data-id="11025"></rect>
	<rect x="1972.167" y="190" class="cabin bella-experience-inside" width="44.834" height="19.75" data-id="11020"></rect>
	<rect x="1697.834" y="169.834" class="cabin fantastica-experience-inside" width="44.834" height="20.25" data-id="11055"></rect>
	<rect x="1697.834" y="190.084" class="cabin fantastica-experience-inside" width="44.834" height="19.75" data-id="11048"></rect>
	<rect x="1653" y="169.834" class="cabin fantastica-experience-inside" width="44.834" height="20.25" data-id="11063"></rect>
	<rect x="1653" y="190.084" class="cabin fantastica-experience-inside" width="44.834" height="19.75" data-id="11058"></rect>
	<rect x="1587.5" y="170.084" class="cabin fantastica-experience-inside" width="43.834" height="20.25" data-id="11069"></rect>
	<rect x="1587.5" y="190.334" class="cabin fantastica-experience-inside" width="43.834" height="19.75" data-id="11064"></rect>
	<rect x="1525.375" y="122.5" class="cabin fantastica-experience-inside" width="30.125" height="43.75" data-id="11079"></rect>
	<rect x="1535.5" y="213.5" class="cabin fantastica-experience-inside" width="20" height="44" data-id="11074"></rect>
	<rect x="1360.5" y="122.5" class="cabin fantastica-experience-inside" width="28.875" height="44" data-id="11097"></rect>
	<rect x="1339.5" y="122.5" class="cabin fantastica-experience-inside" width="21" height="44" data-id="11101"></rect>
	<rect x="1319.5" y="122.5" class="cabin fantastica-experience-inside" width="20" height="44" data-id="11105"></rect>
	<rect x="1299.5" y="122.5" class="cabin fantastica-experience-inside" width="20" height="44" data-id="11109"></rect>
	<rect x="1258.5" y="122.5" class="cabin fantastica-experience-inside" width="20" height="44" data-id="11113"></rect>
	<rect x="1237.5" y="122.5" class="cabin fantastica-experience-inside" width="21" height="44" data-id="11119"></rect>
	<rect x="1217.5" y="122.5" class="cabin fantastica-experience-inside" width="20" height="44" data-id="11125"></rect>
	<rect x="1196.875" y="122.5" class="cabin fantastica-experience-inside" width="20.625" height="44" data-id="11129"></rect>
	<rect x="1176.375" y="122.5" class="cabin fantastica-experience-inside" width="20.5" height="44" data-id="11133"></rect>
	<rect x="1155.875" y="122.5" class="cabin fantastica-experience-inside" width="20.5" height="44" data-id="11137"></rect>
	<rect x="1135.625" y="122.5" class="cabin fantastica-experience-inside" width="20.25" height="44" data-id="11141"></rect>
	<rect x="1114.375" y="122.5" class="cabin fantastica-experience-inside" width="21.25" height="44" data-id="11145"></rect>
	<rect x="1166.125" y="213.5" class="cabin fantastica-experience-inside" width="30.75" height="43.875" data-id="11128"></rect>
	<rect x="1196.875" y="213.5" class="cabin fantastica-experience-inside" width="20.625" height="43.875" data-id="11124"></rect>
	<rect x="1217.5" y="213.5" class="cabin fantastica-experience-inside" width="20" height="43.875" data-id="11120"></rect>
	<rect x="1237.5" y="213.5" class="cabin fantastica-experience-inside" width="21" height="43.875" data-id="11116"></rect>
	<rect x="1258.5" y="213.5" class="cabin fantastica-experience-inside" width="20" height="43.875" data-id="11112"></rect>
	<rect x="1278.5" y="213.5" class="cabin fantastica-experience-inside" width="21" height="43.875" data-id="11108"></rect>
	<rect x="1299.5" y="213.5" class="cabin fantastica-experience-inside" width="20" height="43.875" data-id="11104"></rect>
	<rect x="1319.5" y="213.5" class="cabin fantastica-experience-inside" width="20.5" height="43.875" data-id="11100"></rect>
	<rect x="1340" y="213.5" class="cabin fantastica-experience-inside" width="20.5" height="43.875" data-id="11096"></rect>
	<rect x="1360.5" y="213.5" class="cabin fantastica-experience-inside" width="19.75" height="43.875" data-id="11092"></rect>
	<rect x="929.25" y="213.5" class="cabin fantastica-experience-inside" width="20.167" height="44.083" data-id="11154"></rect>
	<rect x="908.667" y="213.5" class="cabin fantastica-experience-inside" width="20.583" height="44.083" data-id="11158"></rect>
	<rect x="888.167" y="213.5" class="cabin fantastica-experience-inside" width="20.5" height="44.083" data-id="11162"></rect>
	<rect x="867.417" y="213.5" class="cabin fantastica-experience-inside" width="20.749" height="44.083" data-id="11166"></rect>
	<rect x="846.834" y="213.5" class="cabin fantastica-experience-inside" width="20.583" height="44.083" data-id="11170"></rect>
	<rect x="826.418" y="213.5" class="cabin fantastica-experience-inside" width="20.416" height="44.083" data-id="11174"></rect>
	<rect x="805.5" y="213.5" class="cabin fantastica-experience-inside" width="20.918" height="44.083" data-id="11178"></rect>
	<rect x="785.502" y="213.5" class="cabin fantastica-experience-inside" width="19.998" height="44.083" data-id="11182"></rect>
	<rect x="867.417" y="122.417" class="cabin fantastica-experience-inside" width="32" height="44.083" data-id="11171"></rect>
	<rect x="847" y="122.417" class="cabin fantastica-experience-inside" width="20.417" height="44.083" data-id="11175"></rect>
	<rect x="826.417" y="122.417" class="cabin fantastica-experience-inside" width="20.583" height="44.083" data-id="11179"></rect>
	<rect x="806.001" y="122.417" class="cabin fantastica-experience-inside" width="20.416" height="44.083" data-id="11183"></rect>
	<rect x="785.584" y="122.417" class="cabin fantastica-experience-inside" width="20.417" height="44.083" data-id="11187"></rect>
	<rect x="764.5" y="122.417" class="cabin fantastica-experience-inside" width="21.084" height="44.083" data-id="11191"></rect>
	<rect x="590.438" y="122.438" class="cabin fantastica-experience-inside" width="30.062" height="43.938" data-id="11211"></rect>
	<rect x="600.375" y="213.5" class="cabin fantastica-experience-inside" width="21.125" height="43.938" data-id="11204"></rect>
	<rect x="441.5" y="170.5" class="cabin fantastica-experience-inside" width="47" height="19.5" data-id="11231"></rect>
	<rect x="441.5" y="190" class="cabin fantastica-experience-inside" width="47" height="19.5" data-id="11220"></rect>
	<rect x="375.5" y="170.5" class="cabin fantastica-experience-inside" width="46.834" height="19.5" data-id="11235"></rect>
	<rect x="375.5" y="190" class="cabin fantastica-experience-inside" width="46.834" height="19.5" data-id="11226"></rect>
</g>
</svg>
