<svg id="floor-5" viewBox="0 0 2240 380">
document.getElementById('floor-5').innerHTML
"
<g>
	<path class="floor-base" d="M2228,187c0,5.875-57.928,49.766-63.75,54
		c-2.75,2-4.75,1.875-6.141-0.742c-1.05-1.975-5.609-9.758-5.609-9.758l-24.375,14.5c0,0,2.848,5.77,5.375,10.25
		c2.317,4.108,0.71,5.551-4.5,8.75c-108.5,66.625-206.25,70.334-286,70.334c-87,0-1750.417,0-1792.75,0
		C26.667,334.334,16.5,217.25,16.5,187S26.667,39.667,50.25,39.667c42.333,0,1705.75,0,1792.75,0c79.75,0,177.5,3.708,286,70.333
		c5.21,3.199,6.817,4.642,4.5,8.75c-2.527,4.48-5.375,10.25-5.375,10.25l24.375,14.5c0,0,4.56-7.784,5.609-9.758
		c1.391-2.617,3.391-2.742,6.141-0.742C2170.072,137.234,2228,181.125,2228,187z"></path>
	<rect x="962.5" y="44.5" class="cabin fantastica-experience-balcony" width="36" height="38" data-id="5173"></rect>
	<rect x="998.5" y="44.5" class="cabin fantastica-experience-balcony" width="35.5" height="38" data-id="5171"></rect>
	<rect x="1038.333" y="44.5" class="cabin fantastica-experience-balcony" width="36.667" height="38" data-id="5169"></rect>
	<rect x="1075" y="44.5" class="cabin fantastica-experience-balcony" width="35.667" height="38" data-id="5167"></rect>
	<rect x="1112.333" y="44.5" class="cabin fantastica-experience-balcony" width="19" height="48.166" data-id="5165"></rect>
	<rect x="1131.333" y="44.5" class="cabin fantastica-experience-balcony" width="18.333" height="48.166" data-id="5163"></rect>
	<rect x="1149.666" y="44.5" class="cabin fantastica-experience-balcony" width="19" height="48.166" data-id="5159"></rect>
	<rect x="1168.666" y="44.5" class="cabin fantastica-experience-balcony" width="19" height="48.166" data-id="5155"></rect>
	<rect x="1187.666" y="44.5" class="cabin fantastica-experience-balcony" width="18.332" height="48.166" data-id="5151"></rect>
	<rect x="1205.998" y="44.5" class="cabin fantastica-experience-balcony" width="19.334" height="48.166" data-id="5147"></rect>
	<rect x="1225.332" y="44.5" class="cabin fantastica-experience-balcony" width="18" height="48.166" data-id="5143"></rect>
	<rect x="1243.332" y="44.5" class="cabin fantastica-experience-balcony" width="19.333" height="48.166" data-id="5139"></rect>
	<rect x="1262.665" y="44.5" class="cabin fantastica-experience-balcony" width="19" height="48.166" data-id="5135"></rect>
	<rect x="1281.665" y="44.5" class="cabin fantastica-experience-balcony" width="18" height="48.166" data-id="5131"></rect>
	<rect x="1299.665" y="44.5" class="cabin fantastica-experience-balcony" width="19.333" height="48.166" data-id="5127"></rect>
	<rect x="1318.998" y="44.5" class="cabin fantastica-experience-balcony" width="18.667" height="48.166" data-id="5123"></rect>
	<rect x="1337.665" y="44.5" class="cabin fantastica-experience-balcony" width="18.667" height="48.166" data-id="5119"></rect>
	<rect x="1356.332" y="44.5" class="cabin fantastica-experience-balcony" width="19.665" height="48.166" data-id="5113"></rect>
	<rect x="1375.997" y="44.5" class="cabin fantastica-experience-balcony" width="17.667" height="48.166" data-id="5111"></rect>
	<rect x="1393.664" y="44.5" class="cabin fantastica-experience-balcony" width="18.666" height="48.166" data-id="5109"></rect>
	<rect x="1412.33" y="44.5" class="cabin fantastica-experience-balcony" width="19" height="48.166" data-id="5107"></rect>
	<rect x="1431.33" y="44.5" class="cabin fantastica-experience-balcony" width="19.334" height="48.166" data-id="5105"></rect>
	<rect x="1450.664" y="44.5" class="cabin wellness-ocean-view" width="19.333" height="48.166" data-id="5103"></rect>
	<rect x="1469.997" y="44.5" class="cabin wellness-ocean-view" width="18" height="48.166" data-id="5101"></rect>
	<rect x="1487.997" y="46.331" class="cabin wellness-ocean-view" width="18.331" height="53.667" data-id="5099"></rect>
	<rect x="1506.328" y="46.331" class="cabin bella-experience-ocean-view" width="19" height="53.667" data-id="5097"></rect>
	<rect x="1525.328" y="46.331" class="cabin bella-experience-ocean-view" width="18.333" height="53.667" data-id="5093"></rect>
	<rect x="1543.661" y="46.331" class="cabin bella-experience-ocean-view" width="18.667" height="53.667" data-id="5089"></rect>
	<rect x="1562.328" y="46.331" class="cabin bella-experience-ocean-view" width="19" height="53.667" data-id="5085"></rect>
	<rect x="1581.328" y="46.331" class="cabin bella-experience-ocean-view" width="19.333" height="53.667" data-id="5081"></rect>
	<rect x="1600.661" y="46.331" class="cabin bella-experience-ocean-view" width="18" height="53.667" data-id="5077"></rect>
	<rect x="1618.661" y="46.331" class="cabin bella-experience-ocean-view" width="19.334" height="53.667" data-id="5073"></rect>
	<rect x="1637.995" y="46.331" class="cabin bella-experience-ocean-view" width="18" height="53.667" data-id="5069"></rect>
	<rect x="1655.995" y="46.331" class="cabin bella-experience-ocean-view" width="18.666" height="53.667" data-id="5065"></rect>
	<rect x="1674.661" y="46.331" class="cabin bella-experience-ocean-view" width="19.334" height="53.667" data-id="5061"></rect>
	<rect x="1693.995" y="46.331" class="cabin bella-experience-ocean-view" width="18.002" height="53.667" data-id="5057"></rect>
	<rect x="1711.997" y="46.331" class="cabin bella-experience-ocean-view" width="18.333" height="53.667" data-id="5055"></rect>
	<rect x="1730.33" y="46.331" class="cabin bella-experience-ocean-view" width="19.333" height="53.667" data-id="5053"></rect>
	<rect x="1749.663" y="46.331" class="cabin bella-experience-ocean-view" width="18" height="53.667" data-id="5049"></rect>
	<rect x="1767.663" y="46.331" class="cabin bella-experience-ocean-view" width="19" height="53.667" data-id="5045"></rect>
	<rect x="1788.663" y="46.331" class="cabin bella-experience-ocean-view" width="18.334" height="53.667" data-id="5041"></rect>
	<rect x="1806.997" y="46.331" class="cabin bella-experience-ocean-view" width="18.333" height="53.667" data-id="5039"></rect>
	<rect x="1825.33" y="46.331" class="cabin bella-experience-ocean-view" width="19" height="53.667" data-id="5033"></rect>
	<rect x="1844.33" y="46.331" class="cabin bella-experience-ocean-view" width="18.333" height="53.667" data-id="5031"></rect>
	<rect x="1862.663" y="58.663" class="cabin bella-experience-inside" width="19.667" height="41.334" data-id="5027"></rect>
	<rect x="1882.33" y="58.663" class="cabin bella-experience-inside" width="18.667" height="41.334" data-id="5023"></rect>
	<rect x="1900.997" y="58.663" class="cabin bella-experience-inside" width="18.333" height="41.334" data-id="5019"></rect>
	<rect x="1919.33" y="58.663" class="cabin bella-experience-inside" width="19" height="41.334" data-id="5013"></rect>
	<rect x="1938.33" y="58.663" class="cabin bella-experience-inside" width="17.667" height="41.334" data-id="5009"></rect>
	<rect x="1955.997" y="58.663" class="cabin bella-experience-inside" width="18.667" height="41.334" data-id="5005"></rect>
	<rect x="962.5" y="292" class="cabin fantastica-experience-balcony" width="36" height="38" data-id="5166"></rect>
	<rect x="998.5" y="292" class="cabin fantastica-experience-balcony" width="35.5" height="38" data-id="5164"></rect>
	<rect x="1038.334" y="292" class="cabin fantastica-experience-balcony" width="36.666" height="38" data-id="5162"></rect>
	<rect x="1075" y="292" class="cabin fantastica-experience-balcony" width="35.666" height="38" data-id="5160"></rect>
	<rect x="1112.333" y="281.834" class="cabin fantastica-experience-balcony" width="19" height="48.166" data-id="5158"></rect>
	<rect x="1131.333" y="281.834" class="cabin fantastica-experience-balcony" width="18.333" height="48.166" data-id="5156"></rect>
	<rect x="1149.666" y="281.834" class="cabin fantastica-experience-balcony" width="19" height="48.166" data-id="5154"></rect>
	<rect x="1168.666" y="281.834" class="cabin fantastica-experience-balcony" width="19" height="48.166" data-id="5152"></rect>
	<rect x="1187.666" y="281.834" class="cabin fantastica-experience-balcony" width="18.332" height="48.166" data-id="5148"></rect>
	<rect x="1205.998" y="281.834" class="cabin fantastica-experience-balcony" width="19.334" height="48.166" data-id="5144"></rect>
	<rect x="1225.332" y="281.834" class="cabin fantastica-experience-balcony" width="18" height="48.166" data-id="5140"></rect>
	<rect x="1243.332" y="281.834" class="cabin fantastica-experience-balcony" width="19.333" height="48.166" data-id="5136"></rect>
	<rect x="1262.665" y="281.834" class="cabin fantastica-experience-balcony" width="19" height="48.166" data-id="5132"></rect>
	<rect x="1281.665" y="281.834" class="cabin fantastica-experience-balcony" width="18" height="48.166" data-id="5128"></rect>
	<rect x="1299.665" y="281.834" class="cabin fantastica-experience-balcony" width="19.333" height="48.166" data-id="5124"></rect>
	<rect x="1318.998" y="281.834" class="cabin fantastica-experience-balcony" width="18.667" height="48.166" data-id="5120"></rect>
	<rect x="1337.665" y="281.834" class="cabin fantastica-experience-balcony" width="18.667" height="48.166" data-id="5116"></rect>
	<rect x="1356.332" y="281.834" class="cabin fantastica-experience-balcony" width="19.665" height="48.166" data-id="5112"></rect>
	<rect x="1375.997" y="281.834" class="cabin fantastica-experience-balcony" width="17.667" height="48.166" data-id="5110"></rect>
	<rect x="1393.664" y="281.834" class="cabin fantastica-experience-balcony" width="18.666" height="48.166" data-id="5108"></rect>
	<rect x="1412.33" y="281.834" class="cabin fantastica-experience-balcony" width="19" height="48.166" data-id="5106"></rect>
	<rect x="1431.33" y="281.834" class="cabin fantastica-experience-balcony" width="19.334" height="48.166" data-id="5104"></rect>
	<rect x="1450.664" y="281.834" class="cabin wellness-ocean-view" width="19.333" height="48.166" data-id="5102"></rect>
	<rect x="1469.997" y="281.834" class="cabin wellness-ocean-view" width="18" height="48.166" data-id="5100"></rect>
	<rect x="1487.997" y="274.502" class="cabin wellness-ocean-view" width="18.331" height="53.667" data-id="5098"></rect>
	<rect x="1506.328" y="274.502" class="cabin bella-experience-ocean-view" width="19" height="53.667" data-id="5094"></rect>
	<rect x="1525.328" y="274.502" class="cabin bella-experience-ocean-view" width="18.333" height="53.667" data-id="5090"></rect>
	<rect x="1543.661" y="274.502" class="cabin bella-experience-ocean-view" width="18.667" height="53.667" data-id="5086"></rect>
	<rect x="1562.328" y="274.502" class="cabin bella-experience-ocean-view" width="19" height="53.667" data-id="5082"></rect>
	<rect x="1581.328" y="274.502" class="cabin bella-experience-ocean-view" width="19.333" height="53.667" data-id="5078"></rect>
	<rect x="1600.661" y="274.502" class="cabin bella-experience-ocean-view" width="18" height="53.667" data-id="5074"></rect>
	<rect x="1618.661" y="274.502" class="cabin bella-experience-ocean-view" width="19.334" height="53.667" data-id="5070"></rect>
	<rect x="1637.995" y="274.502" class="cabin bella-experience-ocean-view" width="18" height="53.667" data-id="5066"></rect>
	<rect x="1655.995" y="274.502" class="cabin bella-experience-ocean-view" width="18.666" height="53.667" data-id="5062"></rect>
	<rect x="1674.661" y="274.502" class="cabin bella-experience-ocean-view" width="19.334" height="53.667" data-id="5058"></rect>
	<rect x="1693.995" y="274.502" class="cabin bella-experience-ocean-view" width="18.002" height="53.667" data-id="5054"></rect>
	<rect x="1711.997" y="274.502" class="cabin bella-experience-ocean-view" width="18.333" height="53.667" data-id="5052"></rect>
	<rect x="1730.33" y="274.502" class="cabin bella-experience-ocean-view" width="19.333" height="53.667" data-id="5050"></rect>
	<rect x="1749.663" y="274.502" class="cabin bella-experience-ocean-view" width="18" height="53.667" data-id="5046"></rect>
	<rect x="1767.663" y="274.502" class="cabin bella-experience-ocean-view" width="19" height="53.667" data-id="5042"></rect>
	<rect x="1788.663" y="274.502" class="cabin bella-experience-ocean-view" width="18.334" height="53.667" data-id="5038"></rect>
	<rect x="1806.997" y="274.502" class="cabin bella-experience-ocean-view" width="18.333" height="53.667" data-id="5036"></rect>
	<rect x="1825.33" y="274.502" class="cabin bella-experience-ocean-view" width="19" height="53.667" data-id="5030"></rect>
	<rect x="1844.33" y="274.502" class="cabin bella-experience-ocean-view" width="18.333" height="53.667" data-id="5028"></rect>
	<rect x="1862.663" y="274.502" class="cabin bella-experience-inside" width="19.667" height="41.335" data-id="5024"></rect>
	<rect x="1882.33" y="274.502" class="cabin bella-experience-inside" width="18.667" height="41.335" data-id="5022"></rect>
	<rect x="1900.997" y="274.502" class="cabin bella-experience-inside" width="18.333" height="41.335" data-id="5018"></rect>
	<rect x="1919.33" y="274.502" class="cabin bella-experience-inside" width="19" height="41.335" data-id="5014"></rect>
	<rect x="1938.33" y="274.502" class="cabin bella-experience-inside" width="17.667" height="41.335" data-id="5010"></rect>
	<rect x="1955.997" y="274.502" class="cabin bella-experience-inside" width="18.667" height="41.335" data-id="5006"></rect>
	<rect x="1131.333" y="110.5" class="cabin bella-experience-inside" width="18.333" height="41" data-id="5161"></rect>
	<rect x="1149.666" y="110.5" class="cabin bella-experience-inside" width="19" height="41" data-id="5157"></rect>
	<rect x="1168.666" y="110.5" class="cabin bella-experience-inside" width="19" height="41" data-id="5153"></rect>
	<rect x="1187.666" y="110.5" class="cabin bella-experience-inside" width="18.332" height="41" data-id="5149"></rect>
	<rect x="1205.998" y="110.5" class="cabin bella-experience-inside" width="19.334" height="41" data-id="5145"></rect>
	<rect x="1225.332" y="110.5" class="cabin bella-experience-inside" width="18" height="41" data-id="5141"></rect>
	<rect x="1243.332" y="110.5" class="cabin bella-experience-inside" width="19.333" height="41" data-id="5137"></rect>
	<rect x="1262.665" y="110.5" class="cabin bella-experience-inside" width="19" height="41" data-id="5133"></rect>
	<rect x="1281.665" y="110.5" class="cabin bella-experience-inside" width="18" height="41" data-id="5129"></rect>
	<rect x="1299.665" y="110.5" class="cabin bella-experience-inside" width="19.333" height="41" data-id="5125"></rect>
	<rect x="1318.998" y="110.5" class="cabin bella-experience-inside" width="18.667" height="41" data-id="5121"></rect>
	<rect x="1337.665" y="110.5" class="cabin bella-experience-inside" width="16.835" height="41" data-id="5115"></rect>
	<rect x="1337.665" y="221.75" class="cabin bella-experience-inside" width="16.835" height="41.25" data-id="5114"></rect>
	<rect x="1318.998" y="221.75" class="cabin bella-experience-inside" width="18.667" height="41.25" data-id="5118"></rect>
	<rect x="1299.665" y="221.75" class="cabin bella-experience-inside" width="19.333" height="41.25" data-id="5122"></rect>
	<rect x="1281.665" y="221.75" class="cabin bella-experience-inside" width="18" height="41.25" data-id="5126"></rect>
	<rect x="1262.665" y="221.75" class="cabin bella-experience-inside" width="19" height="41.25" data-id="5130"></rect>
	<rect x="1243.332" y="221.75" class="cabin bella-experience-inside" width="19.333" height="41.25" data-id="5134"></rect>
	<rect x="1225.332" y="221.75" class="cabin bella-experience-inside" width="18" height="41.25" data-id="5138"></rect>
	<rect x="1207" y="221.75" class="cabin bella-experience-inside" width="18.332" height="41.25" data-id="5142"></rect>
	<rect x="1187.666" y="221.75" class="cabin bella-experience-inside" width="19.334" height="41.25" data-id="5146"></rect>
	<rect x="1159.166" y="221.75" class="cabin bella-experience-inside" width="28.5" height="41.25" data-id="5150"></rect>
	<rect x="1674.661" y="125" class="cabin bella-experience-inside" width="18.334" height="40.5" data-id="5059"></rect>
	<rect x="1655.995" y="125" class="cabin bella-experience-inside" width="18.666" height="40.5" data-id="5063"></rect>
	<rect x="1637.995" y="125" class="cabin bella-experience-inside" width="18" height="40.5" data-id="5067"></rect>
	<rect x="1618.661" y="125" class="cabin bella-experience-inside" width="19.334" height="40.5" data-id="5071"></rect>
	<rect x="1599.75" y="125" class="cabin bella-experience-inside" width="18.911" height="40.5" data-id="5075"></rect>
	<rect x="1581.328" y="125" class="cabin bella-experience-inside" width="18.422" height="40.5" data-id="5079"></rect>
	<rect x="1562.328" y="125" class="cabin bella-experience-inside" width="19" height="40.5" data-id="5083"></rect>
	<rect x="1543.661" y="125" class="cabin bella-experience-inside" width="18.667" height="40.5" data-id="5087"></rect>
	<rect x="1525.328" y="125" class="cabin bella-experience-inside" width="18.333" height="40.5" data-id="5091"></rect>
	<rect x="1506.328" y="125" class="cabin bella-experience-inside" width="19" height="40.5" data-id="5095"></rect>
	<rect x="1674.249" y="207.5" class="cabin bella-experience-inside" width="19.334" height="41.5" data-id="5056"></rect>
	<rect x="1655.583" y="207.5" class="cabin bella-experience-inside" width="18.666" height="41.5" data-id="5060"></rect>
	<rect x="1637.583" y="207.5" class="cabin bella-experience-inside" width="18" height="41.5" data-id="5064"></rect>
	<rect x="1618.249" y="207.5" class="cabin bella-experience-inside" width="19.334" height="41.5" data-id="5068"></rect>
	<rect x="1599.338" y="207.5" class="cabin bella-experience-inside" width="18.911" height="41.5" data-id="5072"></rect>
	<rect x="1580.916" y="207.5" class="cabin bella-experience-inside" width="18.422" height="41.5" data-id="5076"></rect>
	<rect x="1561.916" y="207.5" class="cabin bella-experience-inside" width="19" height="41.5" data-id="5080"></rect>
	<rect x="1543.249" y="207.5" class="cabin bella-experience-inside" width="18.667" height="41.5" data-id="5084"></rect>
	<rect x="1524.916" y="207.5" class="cabin bella-experience-inside" width="18.333" height="41.5" data-id="5088"></rect>
	<rect x="1505.916" y="207.5" class="cabin bella-experience-inside" width="19" height="41.5" data-id="5092"></rect>
	<rect x="1487.997" y="207.5" class="cabin bella-experience-inside" width="17.919" height="41.5" data-id="5096"></rect>
	<rect x="1722.5" y="118.25" class="cabin bella-experience-inside" width="27.163" height="41.5" data-id="5051"></rect>
	<rect x="1749.663" y="118.25" class="cabin bella-experience-inside" width="18" height="41.5" data-id="5047"></rect>
	<rect x="1767.663" y="118.25" class="cabin bella-experience-inside" width="19" height="41.5" data-id="5043"></rect>
	<rect x="1722.5" y="214.25" class="cabin bella-experience-inside" width="27.163" height="41.5" data-id="5048"></rect>
	<rect x="1749.663" y="214.25" class="cabin bella-experience-inside" width="18" height="41.5" data-id="5044"></rect>
	<rect x="1767.663" y="214.25" class="cabin bella-experience-inside" width="19" height="41.5" data-id="5040"></rect>
	<rect x="1788.663" y="119.75" class="cabin bella-experience-inside" width="35.587" height="19.25" data-id="5037"></rect>
	<rect x="1788.663" y="139" class="cabin bella-experience-inside" width="35.587" height="18.5" data-id="5035"></rect>
	<rect x="1788.663" y="216.5" class="cabin bella-experience-inside" width="35.587" height="18.5" data-id="5032"></rect>
	<rect x="1788.663" y="235" class="cabin bella-experience-inside" width="35.587" height="18.75" data-id="5034"></rect>
	<rect x="1844.33" y="124.25" class="cabin bella-experience-inside" width="19.42" height="41.5" data-id="5029"></rect>
	<rect x="1863.75" y="124.25" class="cabin bella-experience-inside" width="18.58" height="41.5" data-id="5025"></rect>
	<rect x="1882.33" y="124.25" class="cabin bella-experience-inside" width="18.667" height="41.5" data-id="5021"></rect>
	<rect x="1900.997" y="124.25" class="cabin bella-experience-inside" width="18.333" height="41.5" data-id="5015"></rect>
	<rect x="1919.33" y="124.25" class="cabin bella-experience-inside" width="19" height="41.5" data-id="5011"></rect>
	<rect x="1938.33" y="124.25" class="cabin bella-experience-inside" width="19.42" height="41.5" data-id="5007"></rect>
	<rect x="1957.75" y="124.25" class="cabin bella-experience-inside" width="18.25" height="41.5" data-id="5003"></rect>
	<rect x="1976" y="124.25" class="cabin bella-experience-inside" width="18.25" height="41.5" data-id="5001"></rect>
	<rect x="1900.537" y="207.75" class="cabin bella-experience-inside" width="18.333" height="41.5" data-id="5016"></rect>
	<rect x="1918.87" y="207.75" class="cabin bella-experience-inside" width="19" height="41.5" data-id="5012"></rect>
	<rect x="1937.87" y="207.75" class="cabin bella-experience-inside" width="19.42" height="41.5" data-id="5008"></rect>
	<rect x="1957.29" y="207.75" class="cabin bella-experience-inside" width="18.25" height="41.5" data-id="5004"></rect>
	<rect x="1975.54" y="207.75" class="cabin bella-experience-inside" width="18.25" height="41.5" data-id="5002"></rect>
	<rect x="1874.25" y="207.75" class="cabin bella-experience-inside" width="26.287" height="41.5" data-id="5020"></rect>
	<rect x="1844.33" y="207.75" class="cabin bella-experience-inside" width="19.42" height="41.5" data-id="5026"></rect>
</g>
</svg>
